<?xml version="1.0" encoding="utf-8"?>
<!-- Generator: Adobe Illustrator 16.0.4, SVG Export Plug-In . SVG Version: 6.00 Build 0)  -->
<!DOCTYPE svg PUBLIC "-//W3C//DTD SVG 1.1//EN" "http://www.w3.org/Graphics/SVG/1.1/DTD/svg11.dtd">
<svg version="1.1" id="Layer_1" xmlns="http://www.w3.org/2000/svg" xmlns:xlink="http://www.w3.org/1999/xlink" x="0px" y="0px"
	 width="281.66px" height="321.447px" viewBox="-4 -4 281.66 321.447" enable-background="new -4 -4 281.66 321.447"
	 xml:space="preserve">
<g>
	<path fill="#FFFFFF" d="M140.497,315.448c-53.122,0-99.801-17.705-113.512-43.058l-0.239-0.445v-16.702
		c-12.896-8.354-20.232-18.076-21.278-28.197C0.512,219.65-2,211.815-2,203.75c0-9.713,3.586-18.992,10.663-27.593v-66.346
		C8.663,48.159,67.803-2,140.497-2c72.69,0,131.832,50.159,131.832,111.812v89.54c1.124,1.486,3.334,5.339,3.334,12.647v12.502
		c0,11.045-7.399,21.657-21.416,30.74v16.7l-0.24,0.444C240.296,297.742,193.62,315.448,140.497,315.448z"/>
	<path fill="#010101" d="M140.497,0c71.705,0,129.832,49.165,129.832,109.812v90.269c0,0,3.334,3.252,3.334,11.92v12.502
		c0,10.934-7.873,21.11-21.416,29.646v17.291c-13.076,24.183-58.15,42.011-111.75,42.011c-53.604,0-98.673-17.828-111.75-42.009
		v-17.293c-12.778-8.049-20.501-17.565-21.334-27.798C2.637,219.375,0,211.747,0,203.75c0-9.66,3.844-18.785,10.663-26.869v-67.068
		C10.663,49.165,68.791,0,140.497,0 M140.497-4C104.872-4,71.35,7.758,46.107,29.109C20.671,50.623,6.663,79.284,6.663,109.812
		v65.637C-0.318,184.163-4,193.919-4,203.75c0,8.318,2.534,16.39,7.534,23.999c1.263,10.314,8.561,20.144,21.212,28.571v15.118
		v1.014l0.479,0.89c6.949,12.85,21.739,23.882,42.771,31.906c20.917,7.979,45.984,12.199,72.498,12.199
		c26.512,0,51.58-4.22,72.497-12.199c21.031-8.024,35.821-19.061,42.771-31.908l0.481-0.89v-1.014v-15.115
		c14.021-9.343,21.416-20.312,21.416-31.819V212c0-7.008-1.979-11.205-3.334-13.26v-88.929c0-30.528-14.01-59.188-39.443-80.703
		C209.642,7.758,176.121-4,140.497-4L140.497-4z"/>
</g>
<path fill="#262626" d="M270.497,105.458c0-50.694-58.205-91.792-130.002-91.792c-71.796,0-129.999,41.098-129.999,91.792
	c0,0.35,0.013,0.693,0.019,1.042h-0.018v80.833c0,9.569,58.203,17.328,130,17.328c71.799,0,130-7.759,130-17.328V106.5h-0.021
	C270.483,106.152,270.497,105.807,270.497,105.458z"/>
<path d="M46.771,199.34c23.653,3.279,56.899,5.32,93.728,5.32c38.953,0,73.896-2.283,97.725-5.901v-75.464h-0.016
	c0.006-0.277,0.016-0.554,0.016-0.833c0-23.401-14.295-44.244-36.555-57.679c4.467-7.74,7.117-16.422,7.424-25.622
	c-19.043-9.784-41.947-15.495-66.596-15.495c-27.075,0-52.047,6.891-72.105,18.503c0.818,9.125,3.936,17.684,8.838,25.234
	c-19.897,13.445-32.457,33.127-32.457,55.058c0,0.279,0.011,0.556,0.016,0.833h-0.016L46.771,199.34L46.771,199.34z"/>
<g>
	<path fill="#010101" d="M157.813,249.833c1.164-1.146,2.186-2.416,3-3.808V228.69c-0.814-1.391-1.836-2.661-3-3.807V249.833z"/>
	<path fill="#010101" d="M152.645,253.5c1.064-0.521,2.064-1.137,3-1.82v-28.643c-0.936-0.685-1.936-1.299-3-1.822V253.5z"/>
	<path fill="#010101" d="M146.645,255.379c1.029-0.162,2.031-0.396,3-0.696v-34.647c-0.969-0.302-1.971-0.533-3-0.697V255.379z"/>
	<path fill="#010101" d="M136.812,254.682c0.969,0.303,1.973,0.534,3,0.696v-36.043c-1.027,0.164-2.031,0.396-3,0.697V254.682z"/>
	<path fill="#010101" d="M131.646,252.25c0.942,0.617,1.946,1.156,3,1.618v-33.021c-1.054,0.463-2.058,1.001-3,1.618V252.25z"/>
	<path fill="#010101" d="M125.646,246.025c0.816,1.391,1.835,2.661,3,3.807v-24.945c-1.165,1.146-2.184,2.416-3,3.808V246.025z"/>
</g>
<g>
	<path fill="none" stroke="#010101" stroke-miterlimit="10" d="M28.25,254.5c23.741,14.957,65.416,24.853,112.247,24.853
		c46.83,0,88.512-9.896,112.254-24.853"/>
</g>
<path fill="none" stroke="#010101" stroke-miterlimit="10" d="M10.663,191.081c0,0,5.92,18.92,132.254,18.92
	c111,0,127.834-18.92,127.834-18.92"/>
<circle fill="#EC1A35" cx="191.25" cy="233.667" r="6"/>
<circle fill="#00ABC2" cx="210.122" cy="229.656" r="5.416"/>
<circle fill="#00A651" cx="234.667" cy="221.215" r="4.024"/>
<path fill="#EC1A35" d="M79.438,221.689c-4.962,0-9.624,1.301-13.678,3.575c0.047,0.012,0.093,0.022,0.14,0.034
	c-2.104,1.625-9.257,7.599-2.647,9.034c4.382,0.952,11.7,1.359,17.17,1.535c-2.478,4.263-3.9,9.227-3.9,14.531
	c0,2.379,0.297,4.687,0.837,6.896c10.776,2.199,20.811,3.478,28.199,4.203c1.413-3.415,2.195-7.164,2.195-11.101
	C107.751,234.543,95.074,221.689,79.438,221.689z"/>
<path fill="none" stroke="#010101" stroke-width="2" stroke-miterlimit="10" d="M80.42,235.869
	c-5.47-0.176-12.788-0.583-17.17-1.535c-6.607-1.438,0.544-7.409,2.647-9.034c-25.271-6.188-45.37-18.518-55.235-33.955
	L9.75,176.881C2.931,184.965,0,194.09,0,203.75c0,28.685,33.85,52.647,79.079,58.576c-1.641-3.634-2.562-7.67-2.562-11.927
	C76.52,245.094,77.944,240.131,80.42,235.869z"/>
<path fill="none" stroke="#010101" stroke-miterlimit="10" d="M24.765,206.434c0,0-15.268,4.439-14.27,23.979"/>
<path fill="none" stroke="#010101" stroke-miterlimit="10" d="M31.519,211.172c0,0-14.348,5.494-13.635,26.683"/>
<path fill="none" stroke="#010101" stroke-miterlimit="10" d="M39.49,215.689c0,0-16.24,9.471-11.336,29.63"/>
<path fill="none" stroke="#010101" stroke-miterlimit="10" d="M48.119,219.604c0,0-15.949,10.908-7.909,32.067"/>
<path fill="none" stroke="#010101" stroke-miterlimit="10" d="M57.437,222.937c0,0-16.02,12.702-6.775,32.842"/>
<path fill="none" stroke="#010101" stroke-miterlimit="10" d="M19.676,202.078c0,0-14.763,1.742-15.519,18.771"/>
<path fill="none" stroke="#010101" stroke-miterlimit="10" d="M63.25,234.333c0,0-6.88,9.6-1.536,24.707"/>
<path fill="none" stroke="#010101" stroke-miterlimit="10" d="M75.118,235.639c0,0-7.887,12.094-1.381,25.728"/>
<path fill="none" stroke="#010101" stroke-miterlimit="10" d="M14.753,196.885c0,0-12.35-1.05-14.208,13.114"/>
<path fill="none" stroke="#010101" stroke-miterlimit="10" d="M10.663,192.344c0,0-7.951-1.461-10.118,6.201"/>
<path fill="none" stroke="#010101" stroke-miterlimit="10" d="M10.663,187.167c0,0-4.155-1.565-7.951,2.717"/>
<path fill="none" stroke="#000000" stroke-miterlimit="10" d="M262.25,193.417V116.5h-0.02c0.004-0.349,0.02-0.692,0.02-1.042
	c0-50.694-53.617-91.792-119.756-91.792c-66.14,0-119.753,41.098-119.753,91.792c0,0.35,0.012,0.693,0.017,1.042h-0.017v78.183"/>
<path fill="none" stroke="#010101" stroke-miterlimit="10" d="M77.386,257.417c16.546,3.458,37.229,5.583,63.11,5.583
	c140.496,0,130.254-62.92,130.254-62.92"/>
<path fill="none" stroke="#010101" stroke-miterlimit="10" d="M79.386,262.417c16.546,3.458,37.229,5.583,63.11,5.583
	c140.496,0,130.254-62.92,130.254-62.92"/>
<path opacity="0.1" fill="#FFFFFF" enable-background="new    " d="M167.25,98.667c0,0,16.334-7,26.666-12.667
	c0,0,16.334,23.667,19.668,45.667c0,0-16,7-38.668,8C174.917,139.667,174.25,121.667,167.25,98.667z"/>
</svg>
