<?xml version="1.0" encoding="utf-8"?>
<!-- Generator: Adobe Illustrator 16.0.4, SVG Export Plug-In . SVG Version: 6.00 Build 0)  -->
<!DOCTYPE svg PUBLIC "-//W3C//DTD SVG 1.1//EN" "http://www.w3.org/Graphics/SVG/1.1/DTD/svg11.dtd">
<svg version="1.1" id="Layer_1" xmlns="http://www.w3.org/2000/svg" xmlns:xlink="http://www.w3.org/1999/xlink" x="0px" y="0px"
	 width="1024px" height="768px" viewBox="0 0 1024 768" enable-background="new 0 0 1024 768" xml:space="preserve">
<g>
	<polygon fill="#E69E00" points="299,653 918,653 608.5,121 	"/>
</g>
<g>
	<polygon fill="#F72331" points="338,580 880,580 609,114 	"/>
</g>
<g>
	<polygon fill="#009995" points="378,511 840,511 609,114 	"/>
</g>
<g>
	<polygon fill="#801DE1" points="419,442 799,442 609,114 	"/>
</g>
<g>
	<polygon fill="#3B5998" points="467,358 751,358 609,114 	"/>
</g>
<g>
	<path fill="#231F20" d="M923.216,653H293.784L608.5,112.034L923.216,653z M304.216,647h608.568L608.5,123.966L304.216,647z"/>
</g>
<g>
	<g>
		<g>
			<path fill="#231F20" d="M121.261,349.288c-3.289,0-5.761-1.584-6.48-4.416l2.256-0.696c0.552,1.8,1.992,3.048,4.272,3.048
				c1.824,0,3.744-0.888,3.744-2.88c0-1.656-1.272-2.353-2.904-2.784c-0.552-0.145-2.904-0.84-3.433-1.032
				c-1.656-0.624-3.024-1.872-3.024-4.057c0-3.12,2.472-4.872,5.616-4.872c2.736,0,4.944,0.96,5.856,3.433l-2.04,0.863
				c-0.768-1.607-2.016-2.28-3.84-2.28c-1.632,0-3.216,0.912-3.216,2.616c0,1.345,1.056,2.017,2.424,2.4
				c0.552,0.168,2.976,0.864,3.576,1.08c1.824,0.624,3.384,1.849,3.384,4.393C127.453,347.392,124.693,349.288,121.261,349.288z"/>
		</g>
		<g>
			<path fill="#231F20" d="M134.556,349.288c-3,0-5.496-1.584-5.496-4.944V341.8c0-3.409,2.328-5.209,5.256-5.209
				c2.712,0,4.873,1.656,4.873,4.824v2.16h-7.849v0.769c0,1.824,1.272,3.072,3.312,3.072c1.128,0,2.184-0.721,2.832-1.608
				l1.705,0.864C138.109,348.424,136.404,349.288,134.556,349.288z M137.004,341.392c0-1.681-0.888-2.929-2.712-2.929
				c-1.776,0-2.953,1.128-2.953,2.881v0.6h5.665V341.392L137.004,341.392z"/>
		</g>
		<g>
			<path fill="#231F20" d="M144.252,349.216c-2.352,0-2.904-1.608-2.904-3.12v-14.209h2.208v14.161c0,0.72,0.336,1.296,1.249,1.296
				c0.456,0,0.888-0.048,1.344-0.12c0.048-0.023,0.096-0.023,0.12-0.023v1.68C145.62,349.072,144.852,349.216,144.252,349.216z"/>
		</g>
		<g>
			<path fill="#231F20" d="M152.58,333.566c-0.864,0-1.464,0.48-1.464,1.345v2.063h2.376v1.681h-2.376V349h-2.208v-10.345h-2.016
				v-1.681h2.016v-1.56c0-1.225,0.192-3.673,3.408-3.673c0.408,0,0.84,0.048,1.224,0.072v1.8
				C153.228,333.591,152.892,333.566,152.58,333.566z"/>
		</g>
		<g>
			<path fill="#231F20" d="M154.643,343.407v-1.872h6.769v1.872H154.643z"/>
		</g>
		<g>
			<path fill="#231F20" d="M170.556,349c-0.024-0.288-0.096-0.96-0.096-1.248h-0.072c-1.008,1.08-2.064,1.512-3.504,1.512
				c-2.304,0-4.201-1.2-4.201-3.479c0-2.833,2.616-3.841,4.705-3.841h3.024v-1.416c0-1.561-0.96-2.256-2.521-2.256
				c-1.296,0-2.52,0.456-2.52,1.632v0.384h-2.016v-0.264c0-2.568,2.304-3.456,4.608-3.456c2.472,0,4.632,0.911,4.632,3.672v6.217
				c0,0.72,0.072,2.016,0.192,2.544L170.556,349L170.556,349z M170.412,343.575h-2.904c-1.392,0-2.616,0.433-2.616,2.04
				c0,1.297,1.08,1.873,2.4,1.873c2.064,0,3.121-1.129,3.121-2.761L170.412,343.575L170.412,343.575z"/>
		</g>
		<g>
			<path fill="#231F20" d="M179.987,349.288c-3.048,0-5.208-1.752-5.208-4.921v-2.64c0-3.217,2.184-5.137,5.16-5.137
				c2.88,0,4.896,1.656,4.896,4.248v0.312h-2.136v-0.312c0-1.224-0.936-2.376-2.736-2.376c-1.8,0-2.904,1.104-2.904,3.12v2.809
				c0,1.8,0.96,3.048,2.929,3.048c1.8,0,2.712-1.151,2.712-2.352V344.8h2.136v0.24C184.835,347.656,182.867,349.288,179.987,349.288
				z"/>
		</g>
		<g>
			<path fill="#231F20" d="M190.643,349.192c-1.608,0-3.216-0.648-3.216-2.833v-7.681h-1.992v-1.775h1.968v-3.961h2.208v3.961h3.312
				v1.752h-3.312v7.248c0,1.032,0.552,1.417,1.464,1.417c0.72,0,1.368-0.145,1.944-0.312v1.776
				C192.227,349.072,191.171,349.192,190.643,349.192z"/>
		</g>
		<g>
			<path fill="#231F20" d="M202.163,349v-1.8h-0.072c-0.84,1.296-2.016,2.063-3.648,2.063c-2.641,0-3.96-1.872-3.96-4.152v-8.257
				h2.208v7.585c0,1.944,0.96,2.904,2.4,2.904c1.68,0,3-1.344,3-3.456v-7.033h2.232V349H202.163z"/>
		</g>
		<g>
			<path fill="#231F20" d="M214.115,349c-0.024-0.288-0.096-0.96-0.096-1.248h-0.072c-1.008,1.08-2.064,1.512-3.504,1.512
				c-2.304,0-4.201-1.2-4.201-3.479c0-2.833,2.616-3.841,4.705-3.841h3.024v-1.416c0-1.561-0.96-2.256-2.521-2.256
				c-1.296,0-2.52,0.456-2.52,1.632v0.384h-2.016v-0.264c0-2.568,2.304-3.456,4.608-3.456c2.472,0,4.632,0.911,4.632,3.672v6.217
				c0,0.72,0.072,2.016,0.192,2.544L214.115,349L214.115,349z M213.971,343.575h-2.904c-1.392,0-2.616,0.433-2.616,2.04
				c0,1.297,1.08,1.873,2.4,1.873c2.064,0,3.121-1.129,3.121-2.761L213.971,343.575L213.971,343.575z"/>
		</g>
		<g>
			<path fill="#231F20" d="M221.77,349.216c-2.352,0-2.904-1.608-2.904-3.12v-14.209h2.208v14.161c0,0.72,0.336,1.296,1.249,1.296
				c0.456,0,0.888-0.048,1.344-0.12c0.048-0.023,0.096-0.023,0.12-0.023v1.68C223.138,349.072,222.37,349.216,221.77,349.216z"/>
		</g>
		<g>
			<path fill="#231F20" d="M225.394,334.406v-2.616h2.208v2.616H225.394z M225.394,349v-12.146h2.208V349H225.394z"/>
		</g>
		<g>
			<path fill="#231F20" d="M229.641,349v-1.752l6.505-8.593h-6.193v-1.801h8.953v1.705l-6.529,8.616h6.649V349H229.641z"/>
		</g>
		<g>
			<path fill="#231F20" d="M248.314,349c-0.024-0.288-0.096-0.96-0.096-1.248h-0.072c-1.008,1.08-2.064,1.512-3.504,1.512
				c-2.304,0-4.201-1.2-4.201-3.479c0-2.833,2.616-3.841,4.705-3.841h3.024v-1.416c0-1.561-0.96-2.256-2.521-2.256
				c-1.296,0-2.52,0.456-2.52,1.632v0.384h-2.016v-0.264c0-2.568,2.304-3.456,4.608-3.456c2.472,0,4.632,0.911,4.632,3.672v6.217
				c0,0.72,0.072,2.016,0.192,2.544L248.314,349L248.314,349z M248.17,343.575h-2.904c-1.392,0-2.616,0.433-2.616,2.04
				c0,1.297,1.08,1.873,2.4,1.873c2.064,0,3.121-1.129,3.121-2.761L248.17,343.575L248.17,343.575z"/>
		</g>
		<g>
			<path fill="#231F20" d="M256.953,349.192c-1.608,0-3.216-0.648-3.216-2.833v-7.681h-1.992v-1.775h1.968v-3.961h2.208v3.961h3.312
				v1.752h-3.312v7.248c0,1.032,0.552,1.417,1.464,1.417c0.72,0,1.368-0.145,1.944-0.312v1.776
				C258.538,349.072,257.481,349.192,256.953,349.192z"/>
		</g>
		<g>
			<path fill="#231F20" d="M260.865,334.406v-2.616h2.208v2.616H260.865z M260.865,349v-12.146h2.208V349H260.865z"/>
		</g>
		<g>
			<path fill="#231F20" d="M270.441,349.288c-3.048,0-5.112-1.729-5.112-4.824v-2.832c0-3.217,2.28-5.041,5.088-5.041
				c3.024,0,5.112,1.896,5.112,4.992v2.688C275.529,347.488,273.225,349.288,270.441,349.288z M273.273,341.463
				c0-1.775-0.888-3-2.833-3c-1.8,0-2.856,1.104-2.856,3.072v2.881c0,1.775,0.888,3.023,2.832,3.023c1.8,0,2.856-1.104,2.856-3.072
				L273.273,341.463L273.273,341.463z"/>
		</g>
		<g>
			<path fill="#231F20" d="M285.417,349v-7.608c0-1.944-0.96-2.881-2.4-2.881c-1.656,0-3.024,1.345-3.024,3.48V349h-2.208v-12.146
				h2.16v1.801h0.048c0.84-1.296,2.04-2.064,3.672-2.064c2.64,0,3.96,1.849,3.96,4.152V349H285.417z"/>
		</g>
	</g>
	<g>
		<g>
			<path fill="#231F20" d="M117.892,503v-17.113h2.376v15.025h8.329V503H117.892z"/>
		</g>
		<g>
			<path fill="#231F20" d="M134.956,503.288c-3.048,0-5.112-1.729-5.112-4.824v-2.832c0-3.217,2.28-5.041,5.088-5.041
				c3.024,0,5.112,1.896,5.112,4.992v2.688C140.044,501.488,137.74,503.288,134.956,503.288z M137.789,495.463
				c0-1.771-0.888-3-2.833-3c-1.8,0-2.856,1.104-2.856,3.072v2.881c0,1.775,0.888,3.023,2.833,3.023c1.8,0,2.856-1.104,2.856-3.072
				V495.463z"/>
		</g>
		<g>
			<path fill="#231F20" d="M147.532,503.024h-2.256l-4.272-12.174h2.328l3.096,9.409h0.048l3.097-9.409h2.232L147.532,503.024z"/>
		</g>
		<g>
			<path fill="#231F20" d="M158.236,503.288c-3,0-5.496-1.584-5.496-4.944V495.8c0-3.409,2.328-5.209,5.256-5.209
				c2.712,0,4.873,1.656,4.873,4.824v2.16h-7.849v0.769c0,1.824,1.272,3.072,3.312,3.072c1.128,0,2.184-0.721,2.832-1.608
				l1.705,0.864C161.789,502.424,160.084,503.288,158.236,503.288z M160.684,495.392c0-1.681-0.888-2.929-2.712-2.929
				c-1.776,0-2.953,1.128-2.953,2.881v0.604h5.665V495.392L160.684,495.392z"/>
		</g>
		<g>
			<path fill="#231F20" d="M165.363,503.888h-1.728l5.88-18.337h1.656L165.363,503.888z"/>
		</g>
		<g>
			<path fill="#231F20" d="M178.012,503.288c-1.368,0-2.64-0.672-3.265-1.562h-0.048V503h-2.136v-17.113h2.208v6.648h0.024
				c0.84-1.2,2.16-1.944,3.48-1.944c2.641,0,4.465,1.685,4.465,4.368v3.721C182.74,501.848,180.412,503.288,178.012,503.288z
				 M180.484,495.079c0-1.488-0.936-2.592-2.712-2.592c-1.416,0-3,1.224-3,3.048v3.072c0,1.772,1.512,2.854,3.024,2.854
				c1.344,0,2.688-0.84,2.688-2.736V495.079z"/>
		</g>
		<g>
			<path fill="#231F20" d="M189.939,503.288c-3,0-5.496-1.584-5.496-4.944V495.8c0-3.409,2.328-5.209,5.256-5.209
				c2.712,0,4.873,1.656,4.873,4.824v2.16h-7.849v0.769c0,1.824,1.272,3.072,3.312,3.072c1.128,0,2.184-0.721,2.832-1.608
				l1.705,0.864C193.492,502.424,191.787,503.288,189.939,503.288z M192.387,495.392c0-1.681-0.888-2.929-2.712-2.929
				c-1.776,0-2.953,1.128-2.953,2.881v0.604h5.665V495.392L192.387,495.392z"/>
		</g>
		<g>
			<path fill="#231F20" d="M199.635,503.216c-2.352,0-2.904-1.604-2.904-3.12v-14.209h2.208v14.161c0,0.72,0.336,1.296,1.249,1.296
				c0.456,0,0.888-0.048,1.344-0.12c0.048-0.021,0.096-0.021,0.12-0.021v1.68C201.003,503.072,200.235,503.216,199.635,503.216z"/>
		</g>
		<g>
			<path fill="#231F20" d="M207.843,503.288c-3.048,0-5.112-1.729-5.112-4.824v-2.832c0-3.217,2.28-5.041,5.088-5.041
				c3.024,0,5.112,1.896,5.112,4.992v2.688C212.931,501.488,210.627,503.288,207.843,503.288z M210.675,495.463
				c0-1.771-0.888-3-2.833-3c-1.8,0-2.856,1.104-2.856,3.072v2.881c0,1.775,0.888,3.023,2.833,3.023c1.8,0,2.856-1.104,2.856-3.072
				V495.463z"/>
		</g>
		<g>
			<path fill="#231F20" d="M222.795,503v-7.608c0-1.94-0.96-2.881-2.4-2.881c-1.656,0-3.024,1.349-3.024,3.48V503h-2.208v-12.146
				h2.16v1.805h0.048c0.84-1.296,2.04-2.064,3.672-2.064c2.64,0,3.96,1.853,3.96,4.152V503H222.795z"/>
		</g>
		<g>
			<path fill="#231F20" d="M231.962,507.849c-1.872,0-3.84-0.74-4.729-2.473l2.088-0.936c0.696,0.979,1.656,1.604,2.88,1.604
				c1.896,0,2.952-1.392,2.952-2.952v-2.04h-0.024c-0.768,1.128-1.992,1.824-3.433,1.824c-2.784,0-4.488-1.68-4.488-4.368v-3.217
				c0-3.168,2.232-4.704,4.681-4.704c1.272,0,2.64,0.672,3.24,1.632h0.048v-1.368h2.136v11.979
				C237.315,505.712,235.491,507.849,231.962,507.849z M235.155,495.199c0-1.776-1.44-2.76-2.952-2.76
				c-1.344,0-2.736,0.84-2.736,2.732v3.288c0,1.488,0.936,2.616,2.712,2.616c1.417,0,2.977-1.061,2.977-2.881v-2.999
				L235.155,495.199L235.155,495.199z"/>
		</g>
		<g>
			<path fill="#231F20" d="M240.026,488.406v-2.616h2.208v2.616H240.026z M240.026,503v-12.146h2.208V503H240.026z"/>
		</g>
		<g>
			<path fill="#231F20" d="M252.65,503v-7.608c0-1.94-0.96-2.881-2.4-2.881c-1.656,0-3.024,1.349-3.024,3.48V503h-2.208v-12.146
				h2.16v1.805h0.048c0.84-1.296,2.04-2.064,3.672-2.064c2.64,0,3.96,1.853,3.96,4.152V503H252.65z"/>
		</g>
		<g>
			<path fill="#231F20" d="M261.818,507.849c-1.872,0-3.84-0.74-4.729-2.473l2.088-0.936c0.696,0.979,1.656,1.604,2.88,1.604
				c1.896,0,2.952-1.392,2.952-2.952v-2.04h-0.024c-0.768,1.128-1.992,1.824-3.433,1.824c-2.784,0-4.488-1.68-4.488-4.368v-3.217
				c0-3.168,2.232-4.704,4.681-4.704c1.272,0,2.64,0.672,3.24,1.632h0.048v-1.368h2.136v11.979
				C267.17,505.712,265.346,507.849,261.818,507.849z M265.01,495.199c0-1.776-1.44-2.76-2.952-2.76
				c-1.344,0-2.736,0.84-2.736,2.732v3.288c0,1.488,0.936,2.616,2.712,2.616c1.417,0,2.977-1.061,2.977-2.881v-2.999L265.01,495.199
				L265.01,495.199z"/>
		</g>
	</g>
	<g>
		<g>
			<path fill="#231F20" d="M122.989,637.327h-3.745V644h-2.352v-17.113h6.145c3.384,0,5.688,1.896,5.688,5.16
				C128.725,635.023,126.757,637.327,122.989,637.327z M122.533,628.902h-3.289v6.405h3.336c2.4,0,3.769-1.077,3.769-3.265
				C126.349,629.911,124.861,628.902,122.533,628.902z"/>
		</g>
		<g>
			<path fill="#231F20" d="M138.444,644v-7.608c0-1.94-0.96-2.881-2.4-2.881c-1.656,0-3.024,1.349-3.024,3.48V644h-2.208v-17.113
				h2.208v6.771h0.048c0.84-1.32,2.064-2.064,3.625-2.064c2.64,0,3.96,1.853,3.96,4.152V644H138.444z"/>
		</g>
		<g>
			<path fill="#231F20" d="M147.924,645.968c-0.744,2.064-2.16,2.761-3.816,2.761c-0.36,0-1.128-0.068-1.56-0.145v-1.872
				c0.432,0.072,1.2,0.146,1.464,0.146c0.936,0,1.536-0.408,1.848-1.229l0.696-1.872l-4.44-11.929h2.4l3.144,9.19h0.048l3.048-9.19
				h2.256L147.924,645.968z"/>
		</g>
		<g>
			<path fill="#231F20" d="M158.652,644.288c-2.016,0-3.96-0.576-5.136-2.064l1.536-1.316c0.888,0.98,2.184,1.585,3.576,1.585
				s2.808-0.576,2.808-1.824c0-1.2-0.816-1.488-2.328-1.824l-1.608-0.356c-1.704-0.386-3.264-1.296-3.264-3.12
				c0-2.307,1.848-3.792,4.56-3.792c1.992,0,3.408,0.432,4.393,1.604l-1.488,1.272c-0.84-0.792-1.608-1.104-2.976-1.104
				c-1.32,0-2.256,0.675-2.256,1.656c0,1.008,0.96,1.345,2.112,1.584l1.896,0.408c1.704,0.359,3.264,1.368,3.264,3.337
				C163.74,642.992,161.076,644.288,158.652,644.288z"/>
		</g>
		<g>
			<path fill="#231F20" d="M165.683,629.406v-2.616h2.208v2.616H165.683z M165.683,644v-12.146h2.208V644H165.683z"/>
		</g>
		<g>
			<path fill="#231F20" d="M175.235,644.288c-3.048,0-5.112-1.729-5.112-4.824v-2.832c0-3.217,2.28-5.041,5.088-5.041
				c3.024,0,5.112,1.896,5.112,4.992v2.688C180.324,642.488,178.02,644.288,175.235,644.288z M178.068,636.463
				c0-1.775-0.888-3-2.833-3c-1.8,0-2.856,1.104-2.856,3.072v2.881c0,1.775,0.888,3.023,2.833,3.023c1.8,0,2.856-1.104,2.856-3.072
				V636.463z"/>
		</g>
		<g>
			<path fill="#231F20" d="M185.435,644.216c-2.352,0-2.904-1.604-2.904-3.12v-14.209h2.208v14.161c0,0.72,0.336,1.296,1.249,1.296
				c0.456,0,0.888-0.048,1.344-0.12c0.048-0.021,0.096-0.021,0.12-0.021v1.68C186.803,644.072,186.035,644.216,185.435,644.216z"/>
		</g>
		<g>
			<path fill="#231F20" d="M193.643,644.288c-3.048,0-5.112-1.729-5.112-4.824v-2.832c0-3.217,2.28-5.041,5.088-5.041
				c3.024,0,5.112,1.896,5.112,4.992v2.688C198.731,642.488,196.427,644.288,193.643,644.288z M196.476,636.463
				c0-1.775-0.888-3-2.833-3c-1.8,0-2.856,1.104-2.856,3.072v2.881c0,1.775,0.888,3.023,2.832,3.023c1.8,0,2.856-1.104,2.856-3.072
				L196.476,636.463L196.476,636.463z"/>
		</g>
		<g>
			<path fill="#231F20" d="M205.259,648.849c-1.872,0-3.84-0.74-4.729-2.473l2.088-0.936c0.696,0.979,1.656,1.604,2.88,1.604
				c1.896,0,2.952-1.392,2.952-2.952v-2.04h-0.024c-0.768,1.128-1.992,1.824-3.433,1.824c-2.784,0-4.488-1.68-4.488-4.368v-3.217
				c0-3.168,2.232-4.704,4.681-4.704c1.272,0,2.64,0.672,3.24,1.632h0.048v-1.365h2.136v11.979
				C210.611,646.712,208.787,648.849,205.259,648.849z M208.451,636.199c0-1.776-1.44-2.76-2.952-2.76
				c-1.344,0-2.736,0.84-2.736,2.732v3.288c0,1.488,0.936,2.616,2.712,2.616c1.417,0,2.977-1.059,2.977-2.881L208.451,636.199
				L208.451,636.199z"/>
		</g>
		<g>
			<path fill="#231F20" d="M213.322,629.406v-2.616h2.208v2.616H213.322z M213.322,644v-12.146h2.208V644H213.322z"/>
		</g>
		<g>
			<path fill="#231F20" d="M222.971,644.288c-3.048,0-5.208-1.752-5.208-4.921v-2.644c0-3.217,2.184-5.137,5.16-5.137
				c2.88,0,4.896,1.656,4.896,4.248v0.312h-2.136v-0.312c0-1.224-0.936-2.376-2.736-2.376c-1.8,0-2.904,1.104-2.904,3.12v2.809
				c0,1.804,0.96,3.052,2.929,3.052c1.8,0,2.712-1.151,2.712-2.354V639.8h2.136v0.24
				C227.819,642.656,225.851,644.288,222.971,644.288z"/>
		</g>
		<g>
			<path fill="#231F20" d="M236.891,644c-0.024-0.288-0.096-0.96-0.096-1.248h-0.072c-1.008,1.08-2.064,1.512-3.504,1.512
				c-2.304,0-4.201-1.196-4.201-3.479c0-2.833,2.616-3.841,4.705-3.841h3.024v-1.416c0-1.562-0.96-2.256-2.521-2.256
				c-1.296,0-2.52,0.456-2.52,1.632v0.384h-2.016v-0.264c0-2.568,2.304-3.456,4.608-3.456c2.472,0,4.632,0.911,4.632,3.672v6.217
				c0,0.72,0.072,2.016,0.192,2.544L236.891,644L236.891,644z M236.747,638.575h-2.904c-1.392,0-2.616,0.433-2.616,2.04
				c0,1.297,1.08,1.873,2.4,1.873c2.064,0,3.121-1.129,3.121-2.765L236.747,638.575L236.747,638.575z"/>
		</g>
		<g>
			<path fill="#231F20" d="M244.546,644.216c-2.352,0-2.904-1.604-2.904-3.12v-14.209h2.208v14.161c0,0.72,0.336,1.296,1.249,1.296
				c0.456,0,0.888-0.048,1.344-0.12c0.048-0.021,0.096-0.021,0.12-0.021v1.68C245.914,644.072,245.146,644.216,244.546,644.216z"/>
		</g>
	</g>
	<g>
		<rect x="115" y="356.833" fill="#231F20" width="636.002" height="3"/>
	</g>
	<g>
		<rect x="115" y="441.833" fill="#231F20" width="681.003" height="3"/>
	</g>
	<g>
		<rect x="115" y="509.833" fill="#231F20" width="723" height="3"/>
	</g>
	<g>
		<rect x="115" y="578.833" fill="#231F20" width="763.677" height="3"/>
	</g>
	<g>
		<g>
			<path fill="#231F20" d="M117.892,436v-17.113h10.897v2.088h-8.545v5.16h7.129v2.089h-7.129v5.688h8.593V436H117.892z"/>
		</g>
		<g>
			<path fill="#231F20" d="M135.484,436.288c-2.016,0-3.96-0.576-5.136-2.064l1.536-1.316c0.888,0.98,2.184,1.585,3.576,1.585
				s2.808-0.576,2.808-1.824c0-1.2-0.816-1.488-2.328-1.824l-1.608-0.356c-1.704-0.388-3.264-1.3-3.264-3.12
				c0-2.309,1.848-3.792,4.56-3.792c1.992,0,3.408,0.432,4.393,1.604l-1.488,1.272c-0.84-0.792-1.608-1.104-2.976-1.104
				c-1.32,0-2.256,0.673-2.256,1.656c0,1.008,0.96,1.345,2.112,1.584l1.896,0.408c1.704,0.356,3.264,1.368,3.264,3.337
				C140.572,434.992,137.908,436.288,135.484,436.288z"/>
		</g>
		<g>
			<path fill="#231F20" d="M146.379,436.192c-1.608,0-3.216-0.648-3.216-2.833v-7.685h-1.992v-1.771h1.968v-3.961h2.208v3.961h3.312
				v1.752h-3.312v7.248c0,1.028,0.552,1.417,1.464,1.417c0.72,0,1.368-0.146,1.944-0.312v1.776
				C147.964,436.072,146.908,436.192,146.379,436.192z"/>
		</g>
		<g>
			<path fill="#231F20" d="M155.235,436.288c-3,0-5.496-1.584-5.496-4.944V428.8c0-3.409,2.328-5.209,5.256-5.209
				c2.712,0,4.873,1.656,4.873,4.824v2.16h-7.849v0.769c0,1.824,1.272,3.072,3.312,3.072c1.128,0,2.184-0.721,2.833-1.608
				l1.704,0.864C158.788,435.424,157.083,436.288,155.235,436.288z M157.684,428.392c0-1.681-0.888-2.929-2.712-2.929
				c-1.776,0-2.952,1.128-2.952,2.881v0.604h5.664V428.392z"/>
		</g>
		<g>
			<path fill="#231F20" d="M166.995,436.288c-3,0-5.496-1.584-5.496-4.944V428.8c0-3.409,2.328-5.209,5.256-5.209
				c2.712,0,4.873,1.656,4.873,4.824v2.16h-7.849v0.769c0,1.824,1.272,3.072,3.312,3.072c1.128,0,2.184-0.721,2.833-1.608
				l1.704,0.864C170.548,435.424,168.843,436.288,166.995,436.288z M169.443,428.392c0-1.681-0.888-2.929-2.712-2.929
				c-1.776,0-2.952,1.128-2.952,2.881v0.604h5.664V428.392z"/>
		</g>
		<g>
			<path fill="#231F20" d="M188.74,436v-7.608c0-1.849-0.816-2.881-2.328-2.881c-1.704,0-2.928,1.517-2.928,3.386V436h-2.208v-7.585
				c0-1.8-0.744-2.904-2.328-2.904c-1.368,0-2.928,1.229-2.928,3.312V436h-2.208v-12.146h2.136v1.805h0.048
				c0.864-1.296,2.017-2.064,3.672-2.064c1.776,0,2.856,0.864,3.433,2.088c0,0,0.096,0,0.096-0.021
				c0.864-1.248,2.088-2.064,3.84-2.064c2.4,0,3.913,1.634,3.913,3.984V436H188.74z"/>
		</g>
	</g>
	<g>
		<g>
			<path fill="#231F20" d="M124.389,572.288c-3.289,0-5.761-1.584-6.48-4.416l2.256-0.696c0.552,1.8,1.992,3.048,4.272,3.048
				c1.824,0,3.744-0.888,3.744-2.88c0-1.656-1.272-2.353-2.904-2.784c-0.552-0.145-2.904-0.84-3.433-1.028
				c-1.656-0.624-3.024-1.872-3.024-4.061c0-3.12,2.472-4.872,5.616-4.872c2.736,0,4.944,0.96,5.856,3.437l-2.04,0.859
				c-0.768-1.604-2.016-2.276-3.84-2.276c-1.632,0-3.216,0.912-3.216,2.615c0,1.346,1.056,2.018,2.424,2.397
				c0.552,0.168,2.976,0.864,3.576,1.08c1.824,0.624,3.384,1.85,3.384,4.395C130.581,570.392,127.821,572.288,124.389,572.288z"/>
		</g>
		<g>
			<path fill="#231F20" d="M139.869,572c-0.024-0.288-0.096-0.96-0.096-1.248h-0.072c-1.008,1.08-2.064,1.512-3.504,1.512
				c-2.304,0-4.201-1.196-4.201-3.479c0-2.833,2.616-3.841,4.705-3.841h3.024v-1.416c0-1.562-0.96-2.256-2.521-2.256
				c-1.296,0-2.52,0.456-2.52,1.632v0.384h-2.016v-0.264c0-2.568,2.304-3.456,4.608-3.456c2.472,0,4.632,0.911,4.632,3.672v6.217
				c0,0.72,0.072,2.016,0.192,2.544L139.869,572L139.869,572z M139.725,566.575h-2.904c-1.392,0-2.616,0.433-2.616,2.04
				c0,1.297,1.08,1.873,2.4,1.873c2.064,0,3.121-1.129,3.121-2.765L139.725,566.575L139.725,566.575z"/>
		</g>
		<g>
			<path fill="#231F20" d="M149.348,556.566c-0.864,0-1.464,0.479-1.464,1.345v2.062h2.376v1.685h-2.376V572h-2.208v-10.345h-2.016
				v-1.685h2.016v-1.56c0-1.226,0.192-3.673,3.408-3.673c0.408,0,0.84,0.048,1.224,0.072v1.8
				C149.996,556.591,149.66,556.566,149.348,556.566z"/>
		</g>
		<g>
			<path fill="#231F20" d="M157.099,572.288c-3,0-5.496-1.584-5.496-4.944V564.8c0-3.409,2.328-5.209,5.256-5.209
				c2.712,0,4.873,1.656,4.873,4.824v2.16h-7.849v0.769c0,1.824,1.272,3.072,3.312,3.072c1.128,0,2.184-0.721,2.832-1.608
				l1.705,0.864C160.652,571.424,158.947,572.288,157.099,572.288z M159.547,564.392c0-1.681-0.888-2.929-2.712-2.929
				c-1.776,0-2.953,1.128-2.953,2.881v0.604h5.665V564.392L159.547,564.392z"/>
		</g>
		<g>
			<path fill="#231F20" d="M167.779,572.192c-1.608,0-3.216-0.648-3.216-2.833v-7.685h-1.992v-1.771h1.968v-3.961h2.208v3.961h3.312
				v1.752h-3.312v7.248c0,1.028,0.552,1.417,1.464,1.417c0.72,0,1.368-0.146,1.944-0.312v1.776
				C169.363,572.072,168.307,572.192,167.779,572.192z"/>
		</g>
		<g>
			<path fill="#231F20" d="M176.275,573.968c-0.744,2.064-2.16,2.761-3.816,2.761c-0.36,0-1.128-0.068-1.56-0.145v-1.872
				c0.432,0.072,1.2,0.146,1.464,0.146c0.936,0,1.536-0.408,1.848-1.229l0.696-1.872l-4.44-11.929h2.4l3.144,9.19h0.048l3.048-9.19
				h2.256L176.275,573.968z"/>
		</g>
	</g>
	<g>
		<rect x="115.099" y="649.833" fill="#231F20" width="805" height="3"/>
	</g>
</g>
<g>
	<path fill="#231F20" d="M446.305,701.335h4.787v10.475h10.259v-10.475h4.788V727h-4.788v-10.979h-10.259V727h-4.787V701.335z"/>
</g>
<g>
	<path fill="#231F20" d="M471.109,701.083h4.392v4.68h-4.392V701.083z M471.109,708.57h4.392V727h-4.392V708.57z"/>
</g>
<g>
	<path fill="#231F20" d="M479.389,719.909v-3.604c0-5.184,3.892-8.062,8.459-8.062c3.996,0,7.955,2.34,7.955,7.232v3.562H483.96
		v1.008c0,2.34,1.908,3.708,4.248,3.708c1.476,0,3.024-0.973,3.996-2.376l3.384,1.943c-1.438,2.88-4.354,4.104-7.595,4.104
		C483.457,727.432,479.389,724.948,479.389,719.909z M491.412,715.985v-0.505c0-2.521-1.764-3.526-3.563-3.526
		c-1.872,0-3.888,1.008-3.888,3.779v0.252H491.412z"/>
</g>
<g>
	<path fill="#231F20" d="M499.549,708.57h4.284v3.06h0.072c1.08-1.942,3.812-3.42,6.011-3.42c0.468,0,1.008,0,1.476,0.108v4.027
		c-0.572-0.104-1.044-0.104-1.652-0.104c-3.312,0-5.795,1.907-5.795,5.327V727h-4.396V708.57L499.549,708.57z"/>
</g>
<g>
	<path fill="#231F20" d="M513.085,721.78c0-3.563,3.239-5.688,6.804-5.688h4.896v-1.688c0-1.943-1.296-2.771-3.527-2.771
		c-1.908,0-3.312,0.648-3.312,1.836v0.647h-3.96v-0.504c0-4.031,3.852-5.399,7.308-5.399c4.104,0,7.883,1.368,7.883,5.867v8.963
		c0,0.828,0.108,3.562,0.323,3.96h-4.354c-0.071-0.288-0.146-1.404-0.184-1.689h-0.072c-1.615,1.689-3.021,2.054-5.396,2.054
		C515.676,727.36,513.085,725.271,513.085,721.78z M524.783,720.197v-0.9h-4.319c-1.872,0-3.096,0.648-3.096,2.271
		c0,1.548,1.26,2.34,3.312,2.34C524.207,723.904,524.783,722.177,524.783,720.197z"/>
</g>
<g>
	<path fill="#231F20" d="M533.532,708.57h4.284v3.06h0.067c1.08-1.942,3.815-3.42,6.015-3.42c0.469,0,1.008,0,1.477,0.108v4.027
		c-0.576-0.104-1.044-0.104-1.656-0.104c-3.312,0-5.795,1.907-5.795,5.327V727h-4.392V708.57L533.532,708.57z"/>
</g>
<g>
	<path fill="#231F20" d="M547.536,719.909v-3.604c0-5.184,3.888-8.062,8.459-8.062c3.995,0,8.062,2.34,8.062,7.232v0.359h-4.279
		v-0.359c0-2.521-1.98-3.524-3.78-3.524c-1.872,0-3.888,1.008-3.888,3.778v4.316c0,2.34,1.688,3.708,4.027,3.708
		c1.803,0,3.641-1.008,3.641-3.525v-0.183h4.279v0.183c0,4.896-3.924,7.196-7.92,7.196
		C551.604,727.432,547.536,724.805,547.536,719.909z"/>
</g>
<g>
	<path fill="#231F20" d="M567.336,701.335h4.391v9.503h0.108c1.224-1.764,3.168-2.628,5.075-2.628c4.14,0,6.439,2.592,6.439,6.983
		V727h-4.391v-10.69c0-2.771-1.188-4.247-3.42-4.247c-2.412,0-3.816,1.479-3.816,4.606V727h-4.391L567.336,701.335L567.336,701.335z
		"/>
</g>
<g>
	<path fill="#231F20" d="M587.531,733.839v-3.707c0.792,0.107,1.512,0.184,2.088,0.184c1.115,0,1.8-0.688,2.123-1.552l0.793-2.191
		l-6.804-17.998h4.788l4.314,12.599h0.072l4.14-12.599h4.499l-7.811,21.488c-1.044,2.916-3.168,3.992-6.016,3.992
		C589.295,734.055,588.287,733.983,587.531,733.839z"/>
</g>
<g>
	<path fill="#231F20" d="M614.279,720.197v-4.212c0-5.003,4.247-7.739,8.312-7.739c4.464,0,8.459,2.952,8.459,7.667v3.78
		c0,5.003-4.247,7.734-8.312,7.734C618.274,727.432,614.279,724.912,614.279,720.197z M626.59,720.089v-4.571
		c0-2.229-1.729-3.523-3.996-3.523c-1.836,0-3.852,0.972-3.852,3.635v4.536c0,2.229,1.729,3.562,3.996,3.562
		C624.573,723.725,626.59,722.753,626.59,720.089z"/>
</g>
<g>
	<path fill="#231F20" d="M635.806,711.99h-2.627v-3.42h2.627v-2.376c0-3.527,1.804-5.399,5.328-5.399
		c0.72,0,1.516,0.072,2.195,0.182v3.778c-0.612-0.072-1.044-0.104-1.656-0.104c-0.862,0-1.512,0.32-1.512,1.4v2.521h3.168v3.42
		h-3.168V727h-4.355V711.99z"/>
</g>
<g>
	<path fill="#231F20" d="M655.534,701.335h4.644l11.158,17.494h0.072v-17.494h4.604V727h-4.68l-11.122-17.53h-0.072V727h-4.604
		V701.335z"/>
</g>
<g>
	<path fill="#231F20" d="M680.122,719.909v-3.604c0-5.184,3.888-8.062,8.459-8.062c3.995,0,7.955,2.34,7.955,7.232v3.562h-11.843
		v1.008c0,2.34,1.904,3.708,4.248,3.708c1.476,0,3.021-0.973,3.991-2.376l3.388,1.943c-1.44,2.88-4.355,4.104-7.6,4.104
		C684.189,727.432,680.122,724.948,680.122,719.909z M692.145,715.985v-0.505c0-2.521-1.764-3.526-3.562-3.526
		c-1.872,0-3.888,1.008-3.888,3.779v0.252H692.145z"/>
</g>
<g>
	<path fill="#231F20" d="M699.634,719.909v-3.604c0-5.184,3.888-8.062,8.459-8.062c3.995,0,7.955,2.34,7.955,7.232v3.562h-11.843
		v1.008c0,2.34,1.908,3.708,4.248,3.708c1.476,0,3.021-0.973,3.995-2.376l3.384,1.943c-1.44,2.88-4.355,4.104-7.596,4.104
		C703.701,727.432,699.634,724.948,699.634,719.909z M711.656,715.985v-0.505c0-2.521-1.768-3.526-3.563-3.526
		c-1.872,0-3.888,1.008-3.888,3.779v0.252H711.656z"/>
</g>
<g>
	<path fill="#231F20" d="M719.146,720.161v-4.464c0-5.003,3.487-7.487,7.595-7.487c2.052,0,3.744,1.044,4.68,2.269h0.108v-9.144
		h4.392V727h-4.284v-2.052H731.6c-1.043,1.438-3.523,2.479-5.183,2.479C722.385,727.432,719.146,724.876,719.146,720.161z
		 M731.528,720.017v-4.531c0-2.231-1.8-3.563-4.067-3.563c-1.836,0-3.852,0.973-3.852,3.636v4.571c0,2.231,1.728,3.527,3.994,3.527
		C729.44,723.652,731.528,722.681,731.528,720.017z"/>
</g>
<g>
	<path fill="#231F20" d="M739.449,723.832l3.096-2.339c1.152,1.512,2.988,2.411,5.076,2.411c1.8,0,3.635-0.612,3.635-2.271
		c0-1.438-0.972-1.764-3.455-2.191l-2.412-0.437c-3.021-0.54-5.039-2.016-5.039-4.787c0-3.852,3.388-6.047,7.311-6.047
		c3.312,0,5.688,0.827,7.231,3.023l-3.167,2.157c-1.08-1.262-2.304-1.802-4.104-1.802c-1.729,0-2.988,0.648-2.988,2.056
		c0,1.296,1.584,1.477,3.492,1.836l2.771,0.54c3.132,0.608,4.932,2.376,4.932,5.146c0,4.247-4.355,6.263-8.136,6.263
		C744.381,727.396,741.285,726.532,739.449,723.832z"/>
</g>
<g>
	<path fill="#231F20" d="M527.006,615.095l1.857,0.22c-0.203,1.158-0.726,2.064-1.562,2.724c-0.836,0.655-1.858,0.979-3.078,0.979
		c-1.522,0-2.751-0.448-3.678-1.354s-1.39-2.195-1.39-3.88c0-1.09,0.197-2.043,0.598-2.859c0.399-0.817,1.005-1.43,1.82-1.839
		c0.812-0.408,1.701-0.612,2.659-0.612c1.21,0,2.196,0.277,2.969,0.831c0.77,0.558,1.262,1.341,1.479,2.36l-1.835,0.257
		c-0.175-0.678-0.481-1.188-0.929-1.529c-0.443-0.342-0.979-0.513-1.61-0.513c-0.948,0-1.724,0.31-2.315,0.926
		c-0.595,0.617-0.895,1.598-0.895,2.934c0,1.354,0.287,2.34,0.86,2.954c0.573,0.611,1.321,0.922,2.245,0.922
		c0.741,0,1.356-0.206,1.854-0.617C526.559,616.583,526.873,615.95,527.006,615.095z"/>
	<path fill="#231F20" d="M529.775,613.746c0-1.868,0.57-3.252,1.721-4.151c0.957-0.747,2.125-1.121,3.504-1.121
		c1.531,0,2.783,0.454,3.755,1.363s1.458,2.164,1.458,3.767c0,1.301-0.215,2.319-0.645,3.063c-0.433,0.744-1.06,1.322-1.878,1.733
		c-0.821,0.409-1.722,0.614-2.69,0.614c-1.561,0-2.82-0.45-3.782-1.355S529.775,615.449,529.775,613.746z M531.717,613.746
		c0,1.292,0.312,2.259,0.937,2.9c0.618,0.645,1.401,0.966,2.35,0.966c0.938,0,1.717-0.323,2.339-0.972
		c0.622-0.646,0.937-1.631,0.937-2.953c0-1.246-0.313-2.191-0.938-2.837c-0.627-0.643-1.404-0.965-2.334-0.965
		c-0.945,0-1.729,0.32-2.35,0.96C532.027,611.488,531.717,612.454,531.717,613.746z"/>
	<path fill="#231F20" d="M542.426,618.79v-10.088h1.7v1.434c0.818-1.104,2-1.662,3.546-1.662c0.671,0,1.288,0.109,1.854,0.328
		c0.562,0.218,0.981,0.505,1.264,0.859c0.28,0.354,0.476,0.772,0.588,1.264c0.069,0.316,0.104,0.87,0.104,1.662v6.203h-1.891v-6.137
		c0-0.696-0.072-1.22-0.221-1.562s-0.408-0.62-0.781-0.826c-0.375-0.206-0.812-0.309-1.313-0.309c-0.808,0-1.499,0.229-2.083,0.692
		c-0.584,0.463-0.876,1.34-0.876,2.632v5.51H542.426L542.426,618.79z"/>
	<path fill="#231F20" d="M558.498,617.261l0.271,1.511c-0.528,0.104-1.007,0.151-1.427,0.151c-0.686,0-1.217-0.098-1.594-0.294
		c-0.379-0.196-0.646-0.455-0.798-0.773c-0.153-0.318-0.231-0.991-0.231-2.02v-5.805h-1.385v-1.329h1.385v-2.499l1.879-1.025v3.524
		h1.898v1.329H556.6v5.896c0,0.488,0.033,0.803,0.103,0.94c0.063,0.14,0.174,0.25,0.323,0.333c0.148,0.082,0.363,0.123,0.646,0.123
		C557.879,617.327,558.155,617.305,558.498,617.261z"/>
	<path fill="#231F20" d="M567.971,615.541l1.951,0.219c-0.309,1.032-0.878,1.833-1.71,2.403c-0.833,0.57-1.896,0.854-3.188,0.854
		c-1.633,0-2.924-0.451-3.878-1.359c-0.953-0.909-1.433-2.187-1.433-3.824c0-1.697,0.482-3.014,1.447-3.951
		c0.965-0.937,2.217-1.405,3.756-1.405c1.489,0,2.706,0.459,3.65,1.379c0.941,0.919,1.416,2.211,1.416,3.875
		c0,0.103-0.005,0.255-0.013,0.455h-8.309c0.068,1.107,0.416,1.957,1.038,2.548c0.622,0.589,1.396,0.884,2.329,0.884
		c0.689,0,1.283-0.165,1.771-0.494C567.295,616.789,567.684,616.264,567.971,615.541z M561.771,612.777h6.221
		c-0.084-0.852-0.321-1.485-0.714-1.91c-0.604-0.658-1.381-0.987-2.339-0.987c-0.867,0-1.6,0.263-2.188,0.788
		C562.16,611.193,561.834,611.896,561.771,612.777z"/>
	<path fill="#231F20" d="M572.293,618.79v-10.088h1.699v1.434c0.815-1.104,2-1.662,3.545-1.662c0.672,0,1.289,0.109,1.852,0.328
		c0.563,0.218,0.984,0.505,1.268,0.859c0.278,0.354,0.476,0.772,0.587,1.264c0.067,0.316,0.104,0.87,0.104,1.662v6.203h-1.889
		v-6.137c0-0.696-0.072-1.22-0.22-1.562c-0.148-0.344-0.407-0.62-0.782-0.826c-0.373-0.206-0.812-0.309-1.316-0.309
		c-0.804,0-1.497,0.229-2.081,0.692c-0.584,0.463-0.875,1.34-0.875,2.632v5.51H572.293L572.293,618.79z"/>
	<path fill="#231F20" d="M588.363,617.261l0.271,1.511c-0.53,0.104-1.008,0.151-1.428,0.151c-0.687,0-1.217-0.098-1.594-0.294
		c-0.378-0.196-0.646-0.455-0.797-0.773c-0.154-0.318-0.231-0.991-0.231-2.02v-5.805H583.2v-1.329h1.385v-2.499l1.878-1.025v3.524
		h1.898v1.329h-1.898v5.896c0,0.488,0.033,0.803,0.103,0.94c0.063,0.14,0.175,0.25,0.322,0.333c0.15,0.082,0.365,0.123,0.646,0.123
		C587.744,617.327,588.021,617.305,588.363,617.261z"/>
	<path fill="#231F20" d="M590.703,618.79v-1.947h2.15v1.947c0,0.716-0.143,1.293-0.423,1.733c-0.276,0.438-0.723,0.777-1.331,1.021
		l-0.522-0.731c0.397-0.155,0.692-0.392,0.882-0.695c0.188-0.311,0.293-0.749,0.314-1.325L590.703,618.79L590.703,618.79z"/>
	<path fill="#231F20" d="M602.148,618.79v-10.088h1.696v1.434c0.818-1.104,2-1.662,3.545-1.662c0.675,0,1.289,0.109,1.854,0.328
		c0.562,0.218,0.981,0.505,1.265,0.859c0.281,0.354,0.479,0.772,0.587,1.264c0.07,0.316,0.105,0.87,0.105,1.662v6.203h-1.892v-6.137
		c0-0.696-0.069-1.22-0.22-1.562c-0.146-0.345-0.407-0.62-0.782-0.826c-0.37-0.206-0.812-0.309-1.313-0.309
		c-0.804,0-1.498,0.229-2.082,0.692c-0.584,0.463-0.875,1.34-0.875,2.632v5.51H602.148L602.148,618.79z"/>
	<path fill="#231F20" d="M621.366,617.546c-0.699,0.538-1.372,0.918-2.021,1.14c-0.646,0.225-1.341,0.332-2.082,0.332
		c-1.224,0-2.165-0.271-2.819-0.812c-0.657-0.542-0.985-1.233-0.985-2.076c0-0.493,0.123-0.945,0.372-1.354
		c0.248-0.408,0.573-0.736,0.976-0.983c0.403-0.247,0.855-0.434,1.358-0.561c0.37-0.088,0.93-0.177,1.679-0.256
		c1.523-0.165,2.646-0.361,3.367-0.592c0.007-0.231,0.01-0.384,0.01-0.443c0-0.697-0.178-1.188-0.533-1.476
		c-0.481-0.387-1.198-0.58-2.149-0.58c-0.888,0-1.543,0.145-1.967,0.423c-0.423,0.282-0.736,0.781-0.938,1.496l-1.847-0.228
		c0.168-0.716,0.444-1.294,0.829-1.733c0.385-0.438,0.938-0.776,1.668-1.017c0.728-0.238,1.568-0.356,2.527-0.356
		c0.949,0,1.725,0.104,2.316,0.307c0.594,0.202,1.031,0.458,1.312,0.765c0.277,0.308,0.477,0.695,0.588,1.164
		c0.062,0.291,0.095,0.817,0.095,1.577v2.278c0,1.591,0.04,2.597,0.12,3.018s0.24,0.825,0.478,1.211h-1.972
		C621.548,618.436,621.422,618.021,621.366,617.546z M621.209,613.727c-0.686,0.257-1.714,0.472-3.084,0.646
		c-0.777,0.102-1.326,0.215-1.646,0.342c-0.319,0.127-0.567,0.312-0.743,0.557c-0.177,0.243-0.265,0.517-0.265,0.812
		c0,0.456,0.19,0.836,0.572,1.14c0.381,0.307,0.938,0.456,1.672,0.456c0.729,0,1.375-0.145,1.941-0.433
		c0.563-0.288,0.979-0.682,1.248-1.183c0.203-0.389,0.305-0.956,0.305-1.711V613.727z"/>
	<path fill="#231F20" d="M629.14,618.79l-4.234-10.088h1.989l2.396,6.041c0.258,0.649,0.496,1.33,0.713,2.033
		c0.168-0.532,0.402-1.173,0.703-1.919l2.476-6.155h1.94l-4.217,10.088H629.14z"/>
	<path fill="#231F20" d="M636.797,606.83v-1.966h1.889v1.966H636.797z M636.797,618.79v-10.088h1.889v10.088H636.797z"/>
	<path fill="#231F20" d="M641.214,619.626l1.836,0.247c0.077,0.513,0.29,0.887,0.643,1.121c0.469,0.313,1.106,0.475,1.92,0.475
		c0.875,0,1.549-0.158,2.022-0.475c0.478-0.317,0.797-0.76,0.965-1.33c0.101-0.35,0.146-1.08,0.14-2.194
		c-0.826,0.88-1.854,1.32-3.085,1.32c-1.531,0-2.719-0.5-3.559-1.501c-0.84-1-1.26-2.2-1.26-3.602c0-0.964,0.193-1.853,0.578-2.663
		c0.384-0.813,0.939-1.442,1.672-1.889c0.731-0.44,1.59-0.665,2.576-0.665c1.312,0,2.396,0.481,3.252,1.444V608.7h1.741v8.72
		c0,1.57-0.179,2.686-0.53,3.339c-0.354,0.656-0.912,1.174-1.678,1.556c-0.769,0.381-1.709,0.567-2.827,0.567
		c-1.329,0-2.402-0.271-3.222-0.812C641.58,621.529,641.186,620.715,641.214,619.626z M642.777,613.565
		c0,1.32,0.29,2.288,0.871,2.896c0.577,0.607,1.307,0.912,2.182,0.912c0.867,0,1.594-0.303,2.182-0.907
		c0.588-0.604,0.881-1.554,0.881-2.846c0-1.234-0.303-2.166-0.904-2.793c-0.604-0.627-1.334-0.94-2.188-0.94
		c-0.84,0-1.553,0.312-2.141,0.928C643.07,611.432,642.777,612.35,642.777,613.565z"/>
	<path fill="#231F20" d="M660.778,617.546c-0.699,0.538-1.372,0.918-2.021,1.14c-0.646,0.225-1.341,0.332-2.082,0.332
		c-1.224,0-2.165-0.271-2.82-0.812c-0.656-0.542-0.984-1.233-0.984-2.076c0-0.493,0.123-0.945,0.372-1.354
		c0.248-0.408,0.573-0.736,0.976-0.983c0.403-0.247,0.855-0.434,1.358-0.561c0.37-0.088,0.93-0.177,1.679-0.256
		c1.523-0.165,2.646-0.361,3.367-0.592c0.007-0.231,0.01-0.384,0.01-0.443c0-0.697-0.178-1.188-0.535-1.476
		c-0.479-0.387-1.196-0.58-2.147-0.58c-0.889,0-1.543,0.145-1.967,0.423c-0.426,0.282-0.736,0.781-0.938,1.496l-1.847-0.228
		c0.168-0.716,0.441-1.294,0.829-1.733c0.385-0.438,0.938-0.776,1.668-1.017c0.728-0.238,1.566-0.356,2.525-0.356
		c0.951,0,1.727,0.104,2.318,0.307c0.594,0.202,1.031,0.458,1.312,0.765c0.279,0.308,0.479,0.695,0.59,1.164
		c0.062,0.291,0.095,0.817,0.095,1.577v2.278c0,1.591,0.04,2.597,0.12,3.018s0.238,0.825,0.478,1.211h-1.972
		C660.96,618.436,660.834,618.021,660.778,617.546z M660.621,613.727c-0.688,0.257-1.714,0.472-3.084,0.646
		c-0.777,0.102-1.326,0.215-1.647,0.342c-0.318,0.127-0.566,0.312-0.745,0.557c-0.174,0.243-0.262,0.517-0.262,0.812
		c0,0.456,0.19,0.836,0.572,1.14c0.381,0.307,0.938,0.456,1.672,0.456c0.729,0,1.375-0.145,1.941-0.433
		c0.563-0.288,0.979-0.682,1.248-1.183c0.2-0.389,0.305-0.956,0.305-1.711V613.727z"/>
	<path fill="#231F20" d="M669.58,617.261l0.271,1.511c-0.528,0.104-1.007,0.151-1.427,0.151c-0.686,0-1.217-0.098-1.594-0.294
		c-0.379-0.196-0.646-0.455-0.798-0.773c-0.153-0.318-0.231-0.991-0.231-2.02v-5.805h-1.385v-1.329h1.385v-2.499l1.879-1.025v3.524
		h1.898v1.329h-1.898v5.896c0,0.488,0.033,0.803,0.103,0.94c0.063,0.14,0.174,0.25,0.324,0.333c0.147,0.082,0.362,0.123,0.646,0.123
		C668.961,617.327,669.237,617.305,669.58,617.261z"/>
	<path fill="#231F20" d="M671.438,606.83v-1.966h1.89v1.966H671.438z M671.438,618.79v-10.088h1.89v10.088H671.438z"/>
	<path fill="#231F20" d="M675.496,613.746c0-1.868,0.573-3.252,1.721-4.151c0.957-0.747,2.125-1.121,3.504-1.121
		c1.531,0,2.783,0.454,3.755,1.363c0.975,0.909,1.458,2.164,1.458,3.767c0,1.301-0.215,2.319-0.645,3.063s-1.057,1.322-1.878,1.733
		c-0.821,0.409-1.719,0.614-2.69,0.614c-1.561,0-2.817-0.45-3.779-1.355C675.977,616.754,675.496,615.449,675.496,613.746z
		 M677.438,613.746c0,1.292,0.312,2.259,0.937,2.9c0.621,0.645,1.404,0.966,2.35,0.966c0.938,0,1.72-0.323,2.339-0.972
		c0.622-0.646,0.937-1.631,0.937-2.953c0-1.246-0.313-2.191-0.938-2.837c-0.627-0.643-1.401-0.965-2.334-0.965
		c-0.942,0-1.729,0.32-2.35,0.96C677.748,611.488,677.438,612.454,677.438,613.746z"/>
	<path fill="#231F20" d="M688.146,618.79v-10.088h1.698v1.434c0.818-1.104,2-1.662,3.545-1.662c0.675,0,1.289,0.109,1.854,0.328
		c0.562,0.218,0.981,0.505,1.264,0.859c0.28,0.354,0.479,0.772,0.588,1.264c0.07,0.316,0.105,0.87,0.105,1.662v6.203h-1.892v-6.137
		c0-0.696-0.07-1.22-0.221-1.562c-0.146-0.345-0.407-0.62-0.781-0.826s-0.812-0.309-1.313-0.309c-0.806,0-1.498,0.229-2.082,0.692
		c-0.584,0.463-0.876,1.34-0.876,2.632v5.51H688.146L688.146,618.79z"/>
</g>
<g>
	<path fill="#231F20" d="M432.506,539.639v-1.966h1.888v1.966H432.506z M432.506,551.599v-10.088h1.888v10.088H432.506z"/>
	<path fill="#231F20" d="M437.268,551.599v-10.088h1.7v1.437c0.818-1.107,2-1.662,3.545-1.662c0.671,0,1.289,0.106,1.854,0.328
		c0.562,0.218,0.981,0.505,1.264,0.856c0.28,0.354,0.479,0.775,0.587,1.267c0.07,0.313,0.105,0.867,0.105,1.66v6.202h-1.891v-6.137
		c0-0.696-0.07-1.217-0.22-1.562c-0.146-0.348-0.408-0.62-0.782-0.826s-0.812-0.312-1.313-0.312c-0.807,0-1.499,0.23-2.083,0.693
		c-0.584,0.462-0.875,1.339-0.875,2.631v5.51L437.268,551.599L437.268,551.599z"/>
	<path fill="#231F20" d="M449.668,551.599v-8.759H448v-1.329h1.668v-1.071c0-0.68,0.066-1.184,0.199-1.513
		c0.182-0.44,0.502-0.803,0.96-1.078c0.458-0.272,1.1-0.413,1.925-0.413c0.531,0,1.119,0.06,1.762,0.174l-0.28,1.488
		c-0.395-0.062-0.765-0.095-1.112-0.095c-0.573,0-0.979,0.11-1.217,0.332c-0.238,0.222-0.356,0.637-0.356,1.244v0.932h2.171v1.329
		h-2.171v8.759H449.668L449.668,551.599z"/>
	<path fill="#231F20" d="M454.483,546.555c0-1.867,0.57-3.252,1.72-4.148c0.958-0.747,2.126-1.121,3.504-1.121
		c1.532,0,2.783,0.454,3.755,1.362c0.972,0.907,1.458,2.163,1.458,3.768c0,1.298-0.215,2.319-0.646,3.062
		c-0.433,0.744-1.059,1.322-1.877,1.733c-0.822,0.412-1.722,0.617-2.691,0.617c-1.56,0-2.82-0.452-3.782-1.358
		C454.964,549.562,454.483,548.258,454.483,546.555z M456.424,546.555c0,1.292,0.312,2.262,0.937,2.901
		c0.622,0.644,1.402,0.965,2.35,0.965c0.938,0,1.717-0.323,2.339-0.969c0.623-0.646,0.937-1.631,0.937-2.955
		c0-1.247-0.313-2.192-0.939-2.835c-0.626-0.646-1.404-0.965-2.334-0.965c-0.944,0-1.728,0.317-2.35,0.96
		C456.735,544.297,456.424,545.263,456.424,546.555z"/>
	<path fill="#231F20" d="M467.113,551.599v-10.088h1.7v1.529c0.434-0.716,0.834-1.188,1.198-1.416
		c0.367-0.229,0.771-0.342,1.211-0.342c0.639,0,1.283,0.184,1.941,0.551l-0.65,1.587c-0.462-0.247-0.923-0.371-1.385-0.371
		c-0.413,0-0.783,0.113-1.112,0.338c-0.326,0.228-0.562,0.536-0.7,0.938c-0.21,0.604-0.314,1.271-0.314,1.995v5.278H467.113
		L467.113,551.599z"/>
	<path fill="#231F20" d="M474.289,551.599v-10.088h1.688v1.415c0.353-0.494,0.815-0.892,1.396-1.189
		c0.58-0.304,1.241-0.451,1.982-0.451c0.822,0,1.502,0.152,2.027,0.466c0.528,0.311,0.9,0.744,1.117,1.301
		c0.881-1.178,2.028-1.767,3.441-1.767c1.104,0,1.953,0.274,2.549,0.831c0.594,0.555,0.892,1.405,0.892,2.561v6.925h-1.878v-6.354
		c0-0.687-0.061-1.176-0.184-1.479c-0.122-0.301-0.346-0.543-0.666-0.727c-0.322-0.185-0.699-0.275-1.133-0.275
		c-0.783,0-1.437,0.235-1.951,0.707c-0.52,0.475-0.776,1.229-0.776,2.269v5.858h-1.888v-6.555c0-0.76-0.154-1.33-0.461-1.71
		c-0.311-0.38-0.812-0.569-1.512-0.569c-0.531,0-1.022,0.126-1.476,0.38c-0.451,0.255-0.777,0.623-0.979,1.111
		c-0.203,0.487-0.307,1.19-0.307,2.108v5.231L474.289,551.599L474.289,551.599z"/>
	<path fill="#231F20" d="M499.455,550.354c-0.699,0.538-1.373,0.921-2.021,1.143c-0.646,0.222-1.341,0.332-2.082,0.332
		c-1.224,0-2.165-0.271-2.819-0.812c-0.657-0.542-0.986-1.23-0.986-2.074c0-0.492,0.124-0.944,0.373-1.354
		c0.248-0.408,0.573-0.736,0.976-0.983c0.403-0.245,0.855-0.434,1.358-0.561c0.371-0.088,0.93-0.174,1.678-0.256
		c1.524-0.165,2.647-0.361,3.368-0.589c0.007-0.234,0.01-0.384,0.01-0.446c0-0.697-0.178-1.188-0.532-1.473
		c-0.482-0.39-1.199-0.58-2.15-0.58c-0.888,0-1.544,0.142-1.967,0.423c-0.423,0.282-0.736,0.781-0.939,1.496l-1.846-0.229
		c0.168-0.716,0.444-1.294,0.829-1.73c0.385-0.44,0.938-0.779,1.668-1.02c0.728-0.236,1.57-0.354,2.528-0.354
		c0.948,0,1.724,0.102,2.315,0.304c0.594,0.203,1.031,0.458,1.312,0.765c0.277,0.311,0.476,0.695,0.587,1.164
		c0.062,0.291,0.095,0.817,0.095,1.577v2.279c0,1.59,0.04,2.596,0.121,3.017c0.08,0.422,0.239,0.825,0.477,1.211h-1.972
		C499.637,551.244,499.511,550.829,499.455,550.354z M499.298,546.535c-0.686,0.254-1.714,0.469-3.084,0.646
		c-0.776,0.104-1.325,0.216-1.646,0.345c-0.322,0.127-0.57,0.312-0.745,0.556s-0.265,0.515-0.265,0.812
		c0,0.456,0.19,0.838,0.572,1.143c0.381,0.304,0.939,0.456,1.673,0.456c0.729,0,1.375-0.146,1.941-0.436
		c0.565-0.289,0.979-0.682,1.249-1.183c0.203-0.386,0.304-0.956,0.304-1.71V546.535L499.298,546.535z"/>
	<path fill="#231F20" d="M508.256,550.069l0.272,1.511c-0.531,0.101-1.007,0.15-1.43,0.15c-0.685,0-1.217-0.1-1.594-0.296
		c-0.378-0.193-0.644-0.452-0.797-0.771c-0.154-0.32-0.229-0.993-0.229-2.021v-5.805h-1.387v-1.329h1.387v-2.499l1.879-1.022v3.521
		h1.896v1.329h-1.896v5.899c0,0.485,0.03,0.802,0.1,0.938c0.066,0.143,0.175,0.25,0.325,0.333c0.147,0.082,0.365,0.123,0.645,0.123
		C507.637,550.136,507.914,550.113,508.256,550.069z"/>
	<path fill="#231F20" d="M510.113,539.639v-1.966h1.888v1.966H510.113z M510.113,551.599v-10.088h1.888v10.088H510.113z"/>
	<path fill="#231F20" d="M514.173,546.555c0-1.867,0.573-3.252,1.72-4.148c0.959-0.747,2.127-1.121,3.504-1.121
		c1.532,0,2.783,0.454,3.759,1.362c0.973,0.907,1.459,2.163,1.459,3.768c0,1.298-0.218,2.319-0.646,3.062
		c-0.43,0.744-1.055,1.322-1.877,1.733c-0.822,0.412-1.719,0.617-2.688,0.617c-1.562,0-2.82-0.452-3.781-1.358
		C514.654,549.562,514.173,548.258,514.173,546.555z M516.113,546.555c0,1.292,0.312,2.262,0.934,2.901
		c0.623,0.644,1.406,0.965,2.35,0.965c0.938,0,1.72-0.323,2.343-0.969c0.623-0.646,0.934-1.631,0.934-2.955
		c0-1.247-0.312-2.192-0.938-2.835c-0.625-0.646-1.403-0.965-2.334-0.965c-0.943,0-1.729,0.317-2.353,0.96
		C516.425,544.297,516.113,545.263,516.113,546.555z"/>
	<path fill="#231F20" d="M526.824,551.599v-10.088h1.699v1.437c0.815-1.107,2-1.662,3.546-1.662c0.671,0,1.288,0.106,1.852,0.328
		c0.563,0.218,0.984,0.505,1.265,0.856c0.279,0.354,0.478,0.775,0.59,1.267c0.066,0.313,0.104,0.867,0.104,1.66v6.202h-1.888v-6.137
		c0-0.696-0.073-1.217-0.223-1.562c-0.146-0.348-0.405-0.62-0.779-0.826s-0.813-0.312-1.316-0.312c-0.804,0-1.499,0.23-2.083,0.693
		c-0.584,0.462-0.875,1.339-0.875,2.631v5.51L526.824,551.599L526.824,551.599z"/>
	<path fill="#231F20" d="M552.012,550.354c-0.696,0.538-1.373,0.921-2.02,1.143c-0.647,0.222-1.341,0.332-2.082,0.332
		c-1.225,0-2.165-0.271-2.822-0.812c-0.657-0.542-0.986-1.23-0.986-2.074c0-0.492,0.125-0.944,0.373-1.354s0.573-0.736,0.979-0.983
		c0.398-0.245,0.854-0.434,1.355-0.561c0.371-0.088,0.933-0.174,1.681-0.256c1.522-0.165,2.646-0.361,3.367-0.589
		c0.008-0.234,0.012-0.384,0.012-0.446c0-0.697-0.18-1.188-0.535-1.473c-0.481-0.39-1.199-0.58-2.15-0.58
		c-0.889,0-1.545,0.142-1.967,0.423c-0.424,0.282-0.735,0.781-0.938,1.496l-1.849-0.229c0.168-0.716,0.443-1.294,0.828-1.73
		c0.385-0.44,0.94-0.779,1.668-1.02c0.729-0.236,1.57-0.354,2.528-0.354c0.95,0,1.724,0.102,2.317,0.304
		c0.596,0.203,1.029,0.458,1.312,0.765c0.279,0.311,0.477,0.695,0.587,1.164c0.062,0.291,0.095,0.817,0.095,1.577v2.279
		c0,1.59,0.04,2.596,0.121,3.017c0.08,0.422,0.238,0.825,0.479,1.211h-1.976C552.193,551.244,552.067,550.829,552.012,550.354z
		 M551.854,546.535c-0.686,0.254-1.714,0.469-3.085,0.646c-0.772,0.104-1.321,0.216-1.646,0.345
		c-0.323,0.127-0.57,0.312-0.744,0.556c-0.176,0.244-0.263,0.515-0.263,0.812c0,0.456,0.188,0.838,0.568,1.143
		c0.384,0.304,0.939,0.456,1.677,0.456c0.727,0,1.374-0.146,1.938-0.436c0.566-0.288,0.982-0.682,1.249-1.183
		c0.202-0.386,0.305-0.956,0.305-1.71L551.854,546.535L551.854,546.535z"/>
	<path fill="#231F20" d="M556.669,551.599v-10.088h1.7v1.529c0.434-0.716,0.834-1.188,1.201-1.416
		c0.367-0.229,0.771-0.342,1.211-0.342c0.637,0,1.283,0.184,1.938,0.551l-0.647,1.587c-0.463-0.247-0.924-0.371-1.388-0.371
		c-0.411,0-0.78,0.113-1.109,0.338c-0.329,0.228-0.563,0.536-0.703,0.938c-0.21,0.604-0.314,1.271-0.314,1.995v5.278H556.669
		L556.669,551.599z"/>
	<path fill="#231F20" d="M571.114,547.903l1.854,0.219c-0.203,1.159-0.722,2.065-1.558,2.722c-0.835,0.655-1.862,0.982-3.079,0.982
		c-1.524,0-2.75-0.451-3.677-1.354c-0.928-0.9-1.393-2.192-1.393-3.88c0-1.09,0.199-2.043,0.601-2.856
		c0.396-0.817,1.006-1.433,1.817-1.842c0.814-0.405,1.701-0.609,2.659-0.609c1.21,0,2.199,0.274,2.97,0.831
		c0.771,0.555,1.265,1.341,1.479,2.357l-1.836,0.258c-0.176-0.679-0.484-1.188-0.929-1.527c-0.445-0.341-0.98-0.516-1.61-0.516
		c-0.951,0-1.724,0.312-2.318,0.929c-0.594,0.616-0.892,1.595-0.892,2.931c0,1.355,0.286,2.34,0.858,2.954s1.321,0.922,2.244,0.922
		c0.741,0,1.36-0.206,1.856-0.617C570.666,549.392,570.981,548.759,571.114,547.903z"/>
	<path fill="#231F20" d="M574.586,551.599v-13.926h1.889v4.996c0.881-0.924,1.994-1.387,3.336-1.387c0.825,0,1.543,0.146,2.15,0.438
		c0.609,0.295,1.044,0.702,1.307,1.224c0.265,0.52,0.396,1.271,0.396,2.261v6.394h-1.888v-6.394c0-0.854-0.204-1.479-0.614-1.866
		c-0.408-0.39-0.987-0.584-1.735-0.584c-0.56,0-1.086,0.131-1.579,0.396c-0.491,0.264-0.844,0.616-1.055,1.066
		c-0.209,0.449-0.313,1.07-0.313,1.861v5.52H574.586L574.586,551.599z"/>
	<path fill="#231F20" d="M586.546,539.639v-1.966h1.888v1.966H586.546z M586.546,551.599v-10.088h1.888v10.088H586.546z"/>
	<path fill="#231F20" d="M595.432,550.069l0.271,1.511c-0.531,0.101-1.006,0.15-1.426,0.15c-0.688,0-1.22-0.1-1.598-0.296
		c-0.378-0.193-0.644-0.452-0.798-0.771c-0.15-0.32-0.229-0.993-0.229-2.021v-5.805h-1.387v-1.329h1.387v-2.499l1.878-1.022v3.521
		h1.896v1.329h-1.896v5.899c0,0.485,0.033,0.802,0.1,0.938c0.066,0.143,0.175,0.25,0.325,0.333c0.15,0.082,0.365,0.123,0.645,0.123
		C594.812,550.136,595.088,550.113,595.432,550.069z"/>
	<path fill="#231F20" d="M604.903,548.35l1.95,0.222c-0.31,1.029-0.88,1.833-1.712,2.4c-0.831,0.57-1.895,0.854-3.188,0.854
		c-1.629,0-2.921-0.454-3.875-1.362c-0.955-0.909-1.435-2.184-1.435-3.824c0-1.694,0.482-3.014,1.447-3.949
		c0.965-0.938,2.217-1.405,3.755-1.405c1.489,0,2.706,0.459,3.651,1.378c0.943,0.918,1.416,2.21,1.416,3.875
		c0,0.102-0.004,0.254-0.011,0.456h-8.312c0.069,1.105,0.416,1.957,1.038,2.546c0.623,0.589,1.399,0.884,2.33,0.884
		c0.691,0,1.283-0.165,1.772-0.494C604.226,549.599,604.617,549.072,604.903,548.35z M598.703,545.586h6.221
		c-0.084-0.849-0.32-1.485-0.713-1.91c-0.602-0.658-1.381-0.984-2.34-0.984c-0.867,0-1.596,0.263-2.188,0.785
		C599.093,544.002,598.767,544.705,598.703,545.586z"/>
	<path fill="#231F20" d="M616.496,547.903l1.854,0.219c-0.201,1.159-0.722,2.065-1.558,2.722c-0.836,0.655-1.862,0.982-3.079,0.982
		c-1.521,0-2.751-0.451-3.677-1.354c-0.928-0.899-1.392-2.192-1.392-3.88c0-1.09,0.197-2.043,0.599-2.856
		c0.397-0.817,1.006-1.433,1.82-1.842c0.812-0.405,1.698-0.609,2.657-0.609c1.209,0,2.199,0.274,2.972,0.831
		c0.77,0.555,1.262,1.341,1.479,2.357l-1.836,0.258c-0.175-0.679-0.481-1.188-0.928-1.527c-0.444-0.342-0.98-0.516-1.611-0.516
		c-0.951,0-1.723,0.312-2.315,0.929c-0.596,0.616-0.894,1.595-0.894,2.931c0,1.355,0.286,2.34,0.859,2.954s1.321,0.922,2.246,0.922
		c0.737,0,1.356-0.206,1.854-0.617C616.048,549.392,616.363,548.759,616.496,547.903z"/>
	<path fill="#231F20" d="M624.091,550.069l0.272,1.511c-0.531,0.101-1.008,0.15-1.43,0.15c-0.685,0-1.217-0.1-1.595-0.296
		c-0.377-0.193-0.643-0.452-0.797-0.771c-0.154-0.32-0.229-0.993-0.229-2.021v-5.805h-1.387v-1.329h1.387v-2.499l1.878-1.022v3.521
		h1.896v1.329h-1.896v5.899c0,0.485,0.03,0.802,0.1,0.938c0.065,0.143,0.176,0.25,0.326,0.333c0.147,0.082,0.364,0.123,0.645,0.123
		C623.472,550.136,623.748,550.113,624.091,550.069z"/>
	<path fill="#231F20" d="M633.238,551.599v-1.479c-0.867,1.14-2.046,1.709-3.535,1.709c-0.658,0-1.271-0.113-1.842-0.342
		c-0.571-0.229-0.992-0.518-1.271-0.859c-0.272-0.345-0.47-0.768-0.582-1.269c-0.076-0.336-0.112-0.867-0.112-1.599v-6.25h1.889
		v5.597c0,0.894,0.038,1.492,0.115,1.806c0.116,0.45,0.368,0.803,0.756,1.06c0.384,0.258,0.856,0.387,1.426,0.387
		s1.098-0.134,1.595-0.396s0.852-0.62,1.055-1.073c0.207-0.452,0.312-1.107,0.312-1.972v-5.404h1.888V551.6L633.238,551.599
		L633.238,551.599z"/>
	<path fill="#231F20" d="M637.864,551.599v-10.088h1.7v1.529c0.434-0.716,0.834-1.188,1.198-1.416
		c0.367-0.229,0.771-0.342,1.211-0.342c0.64,0,1.283,0.184,1.941,0.551l-0.65,1.587c-0.463-0.247-0.924-0.371-1.385-0.371
		c-0.413,0-0.783,0.113-1.112,0.338c-0.326,0.228-0.562,0.536-0.7,0.938c-0.21,0.604-0.314,1.271-0.314,1.995v5.278H637.864
		L637.864,551.599z"/>
	<path fill="#231F20" d="M652.666,548.35l1.951,0.222c-0.311,1.029-0.877,1.833-1.709,2.4c-0.833,0.57-1.896,0.854-3.189,0.854
		c-1.63,0-2.922-0.454-3.877-1.362c-0.954-0.909-1.432-2.184-1.432-3.824c0-1.694,0.479-3.014,1.447-3.949
		c0.966-0.938,2.217-1.405,3.756-1.405c1.487,0,2.707,0.459,3.647,1.378c0.945,0.918,1.416,2.21,1.416,3.875
		c0,0.102-0.003,0.254-0.01,0.456h-8.309c0.067,1.105,0.416,1.957,1.038,2.546c0.621,0.589,1.396,0.884,2.326,0.884
		c0.693,0,1.283-0.165,1.773-0.494C651.991,549.598,652.379,549.072,652.666,548.35z M646.467,545.586h6.221
		c-0.084-0.849-0.319-1.485-0.714-1.91c-0.602-0.658-1.381-0.984-2.339-0.984c-0.867,0-1.597,0.263-2.188,0.785
		C646.855,544.002,646.529,544.705,646.467,545.586z"/>
	<path fill="#231F20" d="M657.48,551.599v-1.944h2.147v1.944c0,0.719-0.139,1.293-0.419,1.733c-0.28,0.439-0.724,0.78-1.332,1.021
		l-0.521-0.729c0.396-0.158,0.688-0.394,0.881-0.698c0.188-0.308,0.294-0.749,0.312-1.325L657.48,551.599L657.48,551.599z"/>
	<path fill="#231F20" d="M668.926,555.465v-13.954h1.724v1.312c0.402-0.516,0.86-0.897,1.374-1.154
		c0.511-0.257,1.13-0.385,1.854-0.385c0.951,0,1.791,0.222,2.521,0.665c0.729,0.44,1.274,1.065,1.646,1.876
		c0.37,0.808,0.557,1.689,0.557,2.653c0,1.031-0.203,1.964-0.611,2.787c-0.409,0.826-1.004,1.461-1.783,1.899
		c-0.78,0.44-1.6,0.66-2.46,0.66c-0.63,0-1.194-0.12-1.694-0.36c-0.5-0.241-0.911-0.545-1.229-0.912v4.911L668.926,555.465
		L668.926,555.465z M670.636,546.611c0,1.299,0.29,2.258,0.87,2.879c0.581,0.62,1.284,0.931,2.109,0.931
		c0.84,0,1.558-0.321,2.156-0.965c0.598-0.643,0.896-1.638,0.896-2.987c0-1.285-0.292-2.248-0.876-2.888s-1.282-0.959-2.093-0.959
		c-0.808,0-1.519,0.34-2.136,1.021C670.945,544.324,670.636,545.312,670.636,546.611z"/>
	<path fill="#231F20" d="M680.854,551.599v-10.088h1.699v1.529c0.437-0.716,0.834-1.188,1.201-1.416
		c0.367-0.229,0.771-0.342,1.212-0.342c0.636,0,1.283,0.184,1.94,0.551l-0.65,1.587c-0.461-0.247-0.923-0.371-1.385-0.371
		c-0.412,0-0.783,0.113-1.111,0.338c-0.329,0.228-0.562,0.536-0.703,0.938c-0.21,0.604-0.312,1.271-0.312,1.995v5.278H680.854
		L680.854,551.599z"/>
	<path fill="#231F20" d="M695.655,548.35l1.951,0.222c-0.311,1.029-0.878,1.833-1.71,2.4c-0.832,0.57-1.896,0.854-3.189,0.854
		c-1.629,0-2.921-0.454-3.875-1.362c-0.955-0.909-1.433-2.184-1.433-3.824c0-1.694,0.48-3.014,1.445-3.949
		c0.967-0.938,2.22-1.405,3.755-1.405c1.489,0,2.706,0.459,3.651,1.378c0.943,0.918,1.416,2.21,1.416,3.875
		c0,0.102-0.004,0.254-0.011,0.456h-8.312c0.069,1.105,0.416,1.957,1.038,2.546c0.623,0.589,1.399,0.884,2.33,0.884
		c0.691,0,1.283-0.165,1.772-0.494C694.979,549.599,695.369,549.072,695.655,548.35z M689.455,545.586h6.221
		c-0.084-0.849-0.318-1.485-0.713-1.91c-0.602-0.658-1.381-0.984-2.34-0.984c-0.867,0-1.596,0.263-2.188,0.785
		C689.845,544.002,689.519,544.705,689.455,545.586z"/>
	<path fill="#231F20" d="M707.205,551.599v-1.271c-0.706,1-1.744,1.5-3.115,1.5c-0.889,0-1.705-0.222-2.449-0.664
		c-0.742-0.443-1.319-1.062-1.729-1.857c-0.41-0.795-0.614-1.708-0.614-2.738c0-1.01,0.188-1.922,0.559-2.74
		c0.369-0.82,0.927-1.448,1.668-1.886c0.739-0.438,1.567-0.655,2.483-0.655c0.672,0,1.271,0.128,1.794,0.385
		c0.524,0.257,0.951,0.591,1.28,1.002v-4.996h1.877v13.929h-1.753L707.205,551.599L707.205,551.599z M701.236,546.562
		c0,1.293,0.301,2.259,0.899,2.896c0.604,0.639,1.312,0.96,2.129,0.96c0.826,0,1.527-0.306,2.104-0.917
		c0.578-0.611,0.865-1.544,0.865-2.798c0-1.38-0.293-2.396-0.881-3.039c-0.59-0.646-1.312-0.97-2.174-0.97
		c-0.839,0-1.539,0.311-2.104,0.932C701.518,544.249,701.236,545.229,701.236,546.562z"/>
	<path fill="#231F20" d="M711.938,539.639v-1.966h1.89v1.966H711.938z M711.938,551.599v-10.088h1.89v10.088H711.938z"/>
	<path fill="#231F20" d="M723.969,547.903l1.857,0.219c-0.203,1.159-0.726,2.065-1.562,2.722c-0.836,0.655-1.858,0.982-3.075,0.982
		c-1.525,0-2.754-0.451-3.681-1.354c-0.927-0.9-1.39-2.192-1.39-3.88c0-1.09,0.199-2.043,0.598-2.856
		c0.399-0.817,1.005-1.433,1.82-1.842c0.812-0.405,1.701-0.609,2.659-0.609c1.21,0,2.196,0.274,2.969,0.831
		c0.771,0.555,1.262,1.341,1.479,2.357l-1.837,0.258c-0.175-0.679-0.481-1.188-0.929-1.527c-0.441-0.342-0.979-0.516-1.609-0.516
		c-0.949,0-1.725,0.312-2.316,0.929c-0.592,0.616-0.895,1.595-0.895,2.931c0,1.355,0.287,2.34,0.86,2.954s1.321,0.922,2.245,0.922
		c0.741,0,1.358-0.206,1.855-0.617C723.521,549.392,723.836,548.759,723.969,547.903z"/>
	<path fill="#231F20" d="M731.564,550.069l0.271,1.511c-0.531,0.101-1.006,0.15-1.426,0.15c-0.688,0-1.217-0.1-1.595-0.296
		c-0.381-0.193-0.646-0.452-0.801-0.771c-0.15-0.32-0.229-0.993-0.229-2.021v-5.805H726.4v-1.329h1.385v-2.499l1.878-1.022v3.521
		h1.897v1.329h-1.897v5.899c0,0.485,0.033,0.802,0.1,0.938c0.066,0.143,0.178,0.25,0.325,0.333c0.15,0.082,0.365,0.123,0.646,0.123
		C730.945,550.136,731.221,550.113,731.564,550.069z"/>
	<path fill="#231F20" d="M740.68,550.354c-0.696,0.538-1.372,0.921-2.02,1.143c-0.646,0.222-1.34,0.332-2.082,0.332
		c-1.225,0-2.164-0.271-2.822-0.812c-0.656-0.542-0.984-1.23-0.984-2.074c0-0.492,0.123-0.944,0.371-1.354s0.574-0.736,0.979-0.983
		c0.399-0.245,0.854-0.434,1.354-0.561c0.371-0.088,0.933-0.174,1.682-0.256c1.521-0.165,2.646-0.361,3.368-0.589
		c0.006-0.234,0.01-0.384,0.01-0.446c0-0.697-0.178-1.188-0.535-1.473c-0.482-0.39-1.199-0.58-2.15-0.58
		c-0.889,0-1.544,0.142-1.967,0.423c-0.424,0.282-0.733,0.781-0.938,1.496l-1.849-0.229c0.168-0.716,0.443-1.294,0.828-1.73
		c0.385-0.44,0.941-0.779,1.668-1.02c0.729-0.234,1.57-0.354,2.529-0.354c0.95,0,1.723,0.102,2.318,0.304
		c0.594,0.203,1.028,0.458,1.311,0.765c0.279,0.311,0.477,0.695,0.588,1.164c0.062,0.291,0.094,0.817,0.094,1.577v2.279
		c0,1.59,0.041,2.596,0.121,3.017c0.08,0.422,0.239,0.825,0.479,1.211h-1.975C740.861,551.244,740.736,550.829,740.68,550.354z
		 M740.523,546.535c-0.688,0.254-1.718,0.469-3.086,0.646c-0.775,0.104-1.324,0.216-1.646,0.345
		c-0.321,0.127-0.569,0.312-0.744,0.556s-0.262,0.515-0.262,0.812c0,0.456,0.188,0.838,0.57,1.143
		c0.382,0.304,0.938,0.456,1.674,0.456c0.728,0,1.375-0.146,1.938-0.436c0.566-0.288,0.982-0.682,1.248-1.183
		c0.203-0.386,0.306-0.956,0.306-1.71L740.523,546.535L740.523,546.535z"/>
	<path fill="#231F20" d="M747.1,551.599h-1.752v-13.926h1.892v4.968c0.797-0.902,1.812-1.355,3.053-1.355
		c0.686,0,1.334,0.125,1.945,0.375c0.609,0.251,1.113,0.602,1.512,1.055c0.395,0.453,0.704,0.999,0.928,1.639
		c0.228,0.643,0.336,1.323,0.336,2.055c0,1.729-0.473,3.062-1.416,4.009c-0.941,0.942-2.077,1.415-3.396,1.415
		c-1.315,0-2.351-0.497-3.099-1.491L747.1,551.599L747.1,551.599z M747.079,546.479c0,1.213,0.182,2.084,0.546,2.622
		c0.594,0.883,1.398,1.32,2.412,1.32c0.825,0,1.539-0.324,2.141-0.974c0.604-0.65,0.902-1.616,0.902-2.902
		c0-1.314-0.289-2.289-0.866-2.916s-1.274-0.938-2.093-0.938c-0.825,0-1.539,0.321-2.144,0.974
		C747.378,544.312,747.079,545.25,747.079,546.479z"/>
	<path fill="#231F20" d="M757.317,539.639v-1.966h1.888v1.966H757.317z M757.317,551.599v-10.088h1.888v10.088H757.317z"/>
	<path fill="#231F20" d="M762.038,551.599v-13.926h1.889v13.926H762.038z"/>
	<path fill="#231F20" d="M766.863,539.639v-1.966h1.889v1.966H766.863z M766.863,551.599v-10.088h1.889v10.088H766.863z"/>
	<path fill="#231F20" d="M775.749,550.069l0.272,1.511c-0.531,0.101-1.01,0.15-1.43,0.15c-0.685,0-1.217-0.1-1.595-0.296
		c-0.377-0.193-0.644-0.452-0.797-0.771c-0.154-0.32-0.23-0.993-0.23-2.021v-5.805h-1.385v-1.329h1.385v-2.499l1.877-1.022v3.521
		h1.899v1.329h-1.899v5.899c0,0.485,0.033,0.802,0.103,0.938c0.063,0.143,0.176,0.25,0.326,0.333
		c0.147,0.082,0.362,0.123,0.645,0.123C775.13,550.136,775.406,550.113,775.749,550.069z"/>
	<path fill="#231F20" d="M777.512,555.483l-0.21-1.604c0.413,0.102,0.772,0.151,1.081,0.151c0.419,0,0.755-0.063,1.006-0.189
		c0.252-0.127,0.459-0.305,0.619-0.532c0.119-0.171,0.312-0.596,0.577-1.271c0.035-0.095,0.091-0.234,0.168-0.418l-4.228-10.106
		h2.032l2.318,5.842c0.301,0.741,0.57,1.521,0.808,2.338c0.22-0.783,0.479-1.553,0.776-2.3l2.381-5.88h1.892l-4.238,10.259
		c-0.455,1.108-0.811,1.871-1.062,2.289c-0.336,0.563-0.721,0.979-1.151,1.24c-0.436,0.262-0.951,0.396-1.555,0.396
		C778.365,555.692,777.959,555.623,777.512,555.483z"/>
</g>
<g>
	<path fill="#231F20" d="M570.349,408.333h-1.752v-13.926h1.891v4.968c0.798-0.905,1.812-1.358,3.053-1.358
		c0.686,0,1.334,0.125,1.946,0.375c0.609,0.251,1.113,0.604,1.511,1.058c0.395,0.453,0.705,0.999,0.928,1.639
		c0.226,0.641,0.336,1.323,0.336,2.052c0,1.729-0.472,3.065-1.416,4.012c-0.94,0.94-2.076,1.415-3.396,1.415
		c-1.314,0-2.35-0.497-3.098-1.491L570.349,408.333L570.349,408.333z M570.328,403.213c0,1.21,0.182,2.084,0.545,2.622
		c0.594,0.88,1.398,1.32,2.412,1.32c0.826,0,1.539-0.324,2.141-0.977c0.604-0.647,0.902-1.613,0.902-2.899
		c0-1.317-0.289-2.289-0.865-2.916c-0.577-0.627-1.275-0.94-2.094-0.94c-0.824,0-1.538,0.324-2.143,0.977
		C570.627,401.047,570.328,401.984,570.328,403.213z"/>
	<path fill="#231F20" d="M580.534,408.333v-10.088h1.7v1.529c0.434-0.719,0.834-1.188,1.198-1.416
		c0.367-0.229,0.771-0.345,1.214-0.345c0.637,0,1.28,0.187,1.938,0.554l-0.65,1.587c-0.463-0.247-0.924-0.371-1.385-0.371
		c-0.413,0-0.783,0.113-1.11,0.338c-0.328,0.225-0.562,0.536-0.702,0.936c-0.21,0.607-0.314,1.272-0.314,1.995v5.281H580.534
		L580.534,408.333z"/>
	<path fill="#231F20" d="M594.98,407.089c-0.699,0.538-1.373,0.918-2.021,1.14c-0.646,0.225-1.342,0.332-2.082,0.332
		c-1.225,0-2.166-0.271-2.822-0.812c-0.655-0.542-0.983-1.233-0.983-2.076c0-0.493,0.124-0.945,0.373-1.354
		c0.248-0.408,0.569-0.736,0.975-0.983s0.854-0.434,1.359-0.561c0.368-0.091,0.93-0.177,1.678-0.259
		c1.521-0.165,2.646-0.358,3.367-0.589c0.008-0.231,0.011-0.384,0.011-0.443c0-0.697-0.179-1.188-0.535-1.476
		c-0.479-0.387-1.199-0.58-2.148-0.58c-0.89,0-1.545,0.145-1.969,0.425c-0.423,0.28-0.733,0.779-0.938,1.494l-1.85-0.228
		c0.17-0.716,0.444-1.294,0.829-1.733c0.388-0.438,0.939-0.776,1.668-1.017c0.729-0.237,1.569-0.356,2.527-0.356
		c0.951,0,1.725,0.104,2.318,0.307c0.595,0.203,1.028,0.458,1.312,0.765c0.28,0.308,0.479,0.695,0.587,1.164
		c0.063,0.291,0.097,0.817,0.097,1.577v2.279c0,1.59,0.038,2.596,0.119,3.017c0.08,0.421,0.239,0.825,0.479,1.211h-1.974
		C595.162,407.979,595.035,407.562,594.98,407.089z M594.822,403.27c-0.688,0.257-1.713,0.472-3.084,0.646
		c-0.776,0.102-1.325,0.215-1.646,0.342c-0.322,0.127-0.567,0.312-0.745,0.559c-0.175,0.241-0.263,0.515-0.263,0.812
		c0,0.456,0.191,0.836,0.572,1.14c0.381,0.307,0.938,0.456,1.673,0.456c0.728,0,1.374-0.145,1.94-0.433
		c0.563-0.288,0.979-0.682,1.246-1.183c0.202-0.389,0.307-0.956,0.307-1.71V403.27L594.822,403.27z"/>
	<path fill="#231F20" d="M599.658,408.333v-10.088h1.699v1.434c0.815-1.104,2-1.662,3.546-1.662c0.671,0,1.288,0.109,1.852,0.328
		c0.563,0.218,0.984,0.505,1.265,0.859c0.279,0.354,0.478,0.772,0.59,1.264c0.066,0.316,0.104,0.87,0.104,1.662v6.203h-1.888v-6.137
		c0-0.696-0.073-1.218-0.22-1.562c-0.147-0.345-0.408-0.62-0.782-0.826s-0.813-0.309-1.316-0.309c-0.804,0-1.499,0.23-2.083,0.693
		c-0.584,0.462-0.875,1.339-0.875,2.631v5.51H599.658L599.658,408.333z"/>
	<path fill="#231F20" d="M618.835,408.333v-1.272c-0.706,1-1.745,1.5-3.116,1.5c-0.888,0-1.704-0.222-2.449-0.661
		c-0.741-0.443-1.318-1.062-1.729-1.857s-0.613-1.708-0.613-2.741c0-1.007,0.188-1.92,0.559-2.74
		c0.37-0.817,0.927-1.445,1.668-1.886c0.741-0.437,1.566-0.653,2.482-0.653c0.674,0,1.271,0.129,1.795,0.386
		c0.524,0.257,0.951,0.591,1.279,1.002v-4.996h1.878v13.926h-1.753L618.835,408.333L618.835,408.333z M612.865,403.298
		c0,1.292,0.301,2.258,0.899,2.897c0.604,0.639,1.312,0.96,2.132,0.96c0.823,0,1.524-0.309,2.104-0.917
		c0.578-0.611,0.865-1.544,0.865-2.798c0-1.383-0.294-2.396-0.881-3.039c-0.587-0.646-1.312-0.973-2.172-0.973
		c-0.842,0-1.541,0.312-2.104,0.935C613.146,400.983,612.865,401.962,612.865,403.298z"/>
	<path fill="#231F20" d="M623.566,396.373v-1.966h1.888v1.966H623.566z M623.566,408.333v-10.088h1.888v10.088H623.566z"/>
	<path fill="#231F20" d="M628.328,408.333v-10.088h1.699v1.434c0.815-1.104,2-1.662,3.546-1.662c0.671,0,1.288,0.109,1.852,0.328
		c0.563,0.218,0.984,0.505,1.268,0.859c0.276,0.354,0.475,0.772,0.587,1.264c0.066,0.316,0.104,0.87,0.104,1.662v6.203h-1.888
		v-6.137c0-0.696-0.073-1.218-0.22-1.562c-0.147-0.345-0.408-0.62-0.782-0.826s-0.813-0.309-1.316-0.309
		c-0.804,0-1.499,0.23-2.083,0.693c-0.584,0.462-0.875,1.339-0.875,2.631v5.51H628.328L628.328,408.333z"/>
	<path fill="#231F20" d="M639.931,409.169l1.836,0.247c0.077,0.513,0.29,0.887,0.643,1.121c0.469,0.316,1.106,0.475,1.92,0.475
		c0.875,0,1.549-0.155,2.022-0.475c0.477-0.318,0.8-0.76,0.968-1.33c0.098-0.349,0.143-1.08,0.137-2.194
		c-0.826,0.88-1.854,1.32-3.085,1.32c-1.531,0-2.717-0.5-3.556-1.501c-0.843-1-1.263-2.2-1.263-3.601
		c0-0.965,0.193-1.854,0.578-2.664c0.384-0.813,0.941-1.442,1.672-1.889c0.731-0.44,1.59-0.665,2.576-0.665
		c1.314,0,2.398,0.481,3.252,1.444v-1.216h1.741v8.72c0,1.57-0.177,2.687-0.53,3.339c-0.353,0.656-0.912,1.174-1.678,1.557
		c-0.766,0.38-1.709,0.566-2.827,0.566c-1.329,0-2.401-0.271-3.221-0.812C640.298,411.073,639.902,410.258,639.931,409.169z
		 M641.494,403.108c0,1.32,0.29,2.289,0.871,2.896c0.58,0.607,1.307,0.912,2.182,0.912c0.867,0,1.594-0.303,2.182-0.907
		c0.591-0.604,0.884-1.554,0.884-2.846c0-1.234-0.306-2.166-0.907-2.793c-0.604-0.627-1.334-0.94-2.188-0.94
		c-0.84,0-1.553,0.312-2.141,0.93C641.787,400.975,641.494,401.893,641.494,403.108z"/>
</g>
<g>
	<path fill="#231F20" d="M549.612,486.989v-13.954h1.721v1.311c0.405-0.513,0.864-0.896,1.374-1.151
		c0.511-0.26,1.129-0.388,1.857-0.388c0.948,0,1.789,0.225,2.518,0.665c0.727,0.443,1.275,1.068,1.646,1.876
		c0.368,0.811,0.557,1.692,0.557,2.655c0,1.032-0.205,1.962-0.614,2.788s-1.003,1.46-1.783,1.899
		c-0.777,0.438-1.601,0.657-2.46,0.657c-0.629,0-1.191-0.117-1.691-0.357c-0.5-0.241-0.911-0.545-1.232-0.912v4.911H549.612
		L549.612,486.989z M551.322,478.136c0,1.299,0.29,2.258,0.871,2.879c0.58,0.62,1.28,0.934,2.105,0.934
		c0.839,0,1.561-0.321,2.155-0.965c0.598-0.646,0.896-1.641,0.896-2.987c0-1.285-0.292-2.248-0.876-2.888
		c-0.584-0.643-1.278-0.96-2.093-0.96c-0.805,0-1.517,0.341-2.135,1.021C551.632,475.849,551.322,476.838,551.322,478.136z"/>
	<path fill="#231F20" d="M569.188,479.874l1.951,0.219c-0.309,1.032-0.878,1.833-1.71,2.403c-0.833,0.57-1.896,0.854-3.188,0.854
		c-1.63,0-2.921-0.451-3.876-1.359c-0.955-0.909-1.435-2.187-1.435-3.824c0-1.697,0.482-3.014,1.447-3.951
		c0.965-0.937,2.217-1.406,3.756-1.406c1.489,0,2.706,0.459,3.65,1.379c0.942,0.918,1.416,2.211,1.416,3.875
		c0,0.104-0.004,0.256-0.01,0.455h-8.312c0.069,1.108,0.416,1.957,1.038,2.547c0.622,0.591,1.399,0.886,2.329,0.886
		c0.692,0,1.283-0.165,1.771-0.494C568.512,481.122,568.9,480.597,569.188,479.874z M562.987,477.11h6.221
		c-0.084-0.852-0.321-1.485-0.714-1.91c-0.604-0.658-1.381-0.987-2.339-0.987c-0.867,0-1.6,0.263-2.188,0.788
		S563.051,476.229,562.987,477.11z"/>
	<path fill="#231F20" d="M573.488,483.123v-10.088h1.696v1.529c0.437-0.719,0.834-1.188,1.201-1.416
		c0.367-0.229,0.771-0.345,1.212-0.345c0.639,0,1.283,0.187,1.94,0.554l-0.65,1.587c-0.461-0.247-0.923-0.371-1.385-0.371
		c-0.412,0-0.783,0.11-1.111,0.338c-0.329,0.225-0.562,0.536-0.703,0.936c-0.21,0.607-0.312,1.272-0.312,1.995v5.281H573.488
		L573.488,483.123z"/>
	<path fill="#231F20" d="M581.115,483.123v-8.759h-1.668v-1.329h1.668v-1.074c0-0.677,0.063-1.181,0.199-1.51
		c0.182-0.443,0.502-0.803,0.959-1.078c0.459-0.275,1.1-0.414,1.926-0.414c0.531,0,1.119,0.058,1.762,0.172l-0.283,1.491
		c-0.391-0.063-0.762-0.095-1.108-0.095c-0.574,0-0.979,0.107-1.22,0.332c-0.235,0.222-0.354,0.637-0.354,1.241v0.935h2.172v1.329
		h-2.172v8.759H581.115L581.115,483.123z"/>
	<path fill="#231F20" d="M585.93,478.079c0-1.868,0.574-3.252,1.724-4.151c0.958-0.747,2.126-1.121,3.504-1.121
		c1.528,0,2.783,0.454,3.756,1.363c0.972,0.909,1.458,2.164,1.458,3.77c0,1.298-0.216,2.316-0.646,3.062
		c-0.43,0.744-1.056,1.322-1.877,1.733c-0.819,0.411-1.719,0.614-2.688,0.614c-1.562,0-2.82-0.449-3.781-1.355
		C586.411,481.087,585.93,479.782,585.93,478.079z M587.871,478.079c0,1.292,0.311,2.259,0.934,2.901
		c0.622,0.644,1.405,0.965,2.353,0.965c0.938,0,1.717-0.323,2.34-0.972c0.622-0.646,0.934-1.631,0.934-2.952
		c0-1.247-0.312-2.192-0.938-2.838c-0.626-0.643-1.404-0.965-2.334-0.965c-0.944,0-1.729,0.32-2.353,0.96
		C588.182,475.821,587.871,476.787,587.871,478.079z"/>
	<path fill="#231F20" d="M598.561,483.123v-10.088h1.699v1.529c0.437-0.719,0.834-1.188,1.201-1.416
		c0.367-0.229,0.771-0.345,1.211-0.345c0.637,0,1.283,0.187,1.941,0.554l-0.65,1.587c-0.462-0.247-0.924-0.371-1.385-0.371
		c-0.412,0-0.783,0.11-1.111,0.338c-0.33,0.225-0.564,0.536-0.703,0.936c-0.211,0.607-0.312,1.272-0.312,1.995v5.281H598.561
		L598.561,483.123z"/>
	<path fill="#231F20" d="M605.735,483.123v-10.088h1.688v1.415c0.353-0.494,0.815-0.895,1.396-1.192
		c0.58-0.301,1.237-0.451,1.979-0.451c0.824,0,1.502,0.155,2.029,0.469c0.527,0.311,0.898,0.741,1.117,1.301
		c0.881-1.178,2.025-1.77,3.438-1.77c1.104,0,1.954,0.277,2.549,0.831c0.597,0.558,0.895,1.408,0.895,2.562v6.925h-1.878v-6.355
		c0-0.684-0.062-1.176-0.187-1.477c-0.122-0.301-0.344-0.543-0.666-0.727c-0.319-0.187-0.696-0.275-1.133-0.275
		c-0.783,0-1.434,0.235-1.951,0.707c-0.517,0.472-0.773,1.228-0.773,2.266v5.861h-1.891v-6.555c0-0.763-0.151-1.33-0.462-1.71
		c-0.308-0.383-0.812-0.569-1.511-0.569c-0.531,0-1.021,0.126-1.475,0.38c-0.45,0.253-0.777,0.623-0.98,1.111
		c-0.203,0.484-0.304,1.188-0.304,2.105v5.234L605.735,483.123L605.735,483.123z"/>
	<path fill="#231F20" d="M630.902,481.879c-0.699,0.538-1.373,0.918-2.021,1.14c-0.646,0.225-1.342,0.332-2.082,0.332
		c-1.225,0-2.166-0.271-2.822-0.812c-0.655-0.542-0.983-1.233-0.983-2.076c0-0.493,0.124-0.945,0.373-1.354
		c0.248-0.408,0.569-0.736,0.975-0.983s0.855-0.434,1.359-0.561c0.37-0.091,0.93-0.177,1.678-0.259
		c1.523-0.165,2.646-0.358,3.367-0.589c0.008-0.231,0.011-0.384,0.011-0.443c0-0.697-0.179-1.188-0.535-1.476
		c-0.479-0.387-1.197-0.58-2.147-0.58c-0.891,0-1.545,0.145-1.97,0.423c-0.423,0.282-0.733,0.781-0.938,1.496l-1.847-0.228
		c0.168-0.716,0.441-1.294,0.827-1.733c0.387-0.438,0.938-0.776,1.669-1.017c0.728-0.237,1.567-0.356,2.525-0.356
		c0.951,0,1.727,0.104,2.318,0.307c0.595,0.203,1.031,0.458,1.312,0.765c0.28,0.308,0.479,0.695,0.587,1.164
		c0.063,0.291,0.099,0.817,0.099,1.577v2.278c0,1.591,0.039,2.597,0.12,3.018c0.077,0.421,0.236,0.825,0.478,1.211h-1.973
		C631.084,482.769,630.957,482.354,630.902,481.879z M630.744,478.06c-0.688,0.257-1.713,0.472-3.084,0.646
		c-0.776,0.102-1.325,0.215-1.646,0.342c-0.319,0.127-0.567,0.312-0.744,0.556c-0.176,0.244-0.264,0.518-0.264,0.812
		c0,0.456,0.191,0.836,0.572,1.14c0.381,0.307,0.939,0.456,1.673,0.456c0.729,0,1.374-0.145,1.94-0.433
		c0.563-0.288,0.979-0.682,1.249-1.183c0.202-0.389,0.304-0.956,0.304-1.713V478.06L630.744,478.06z"/>
	<path fill="#231F20" d="M635.58,483.123v-10.088h1.7v1.434c0.815-1.104,2-1.662,3.546-1.662c0.671,0,1.288,0.109,1.852,0.328
		c0.562,0.218,0.984,0.505,1.267,0.859c0.277,0.354,0.476,0.772,0.588,1.264c0.066,0.316,0.104,0.87,0.104,1.662v6.203h-1.888
		v-6.137c0-0.696-0.074-1.22-0.221-1.562c-0.147-0.344-0.408-0.62-0.781-0.826c-0.375-0.206-0.813-0.309-1.316-0.309
		c-0.805,0-1.499,0.229-2.083,0.693c-0.584,0.462-0.876,1.339-0.876,2.631v5.51H635.58L635.58,483.123z"/>
	<path fill="#231F20" d="M654.799,479.428l1.857,0.222c-0.203,1.156-0.726,2.062-1.562,2.722c-0.836,0.655-1.858,0.979-3.078,0.979
		c-1.522,0-2.751-0.448-3.678-1.354s-1.39-2.195-1.39-3.88c0-1.09,0.199-2.043,0.598-2.859c0.399-0.814,1.005-1.43,1.82-1.839
		c0.812-0.408,1.701-0.612,2.659-0.612c1.21,0,2.196,0.277,2.969,0.831c0.77,0.558,1.262,1.341,1.479,2.36l-1.835,0.257
		c-0.175-0.678-0.481-1.188-0.929-1.529c-0.443-0.342-0.979-0.513-1.61-0.513c-0.948,0-1.724,0.309-2.315,0.926
		s-0.895,1.598-0.895,2.934c0,1.354,0.287,2.34,0.86,2.954c0.573,0.611,1.321,0.922,2.245,0.922c0.741,0,1.356-0.206,1.854-0.617
		C654.352,480.916,654.666,480.283,654.799,479.428z"/>
	<path fill="#231F20" d="M665.896,479.874l1.949,0.219c-0.308,1.032-0.878,1.833-1.71,2.403s-1.895,0.854-3.188,0.854
		c-1.629,0-2.921-0.451-3.875-1.359c-0.955-0.909-1.436-2.187-1.436-3.824c0-1.697,0.483-3.014,1.448-3.951
		c0.965-0.937,2.217-1.406,3.755-1.406c1.489,0,2.706,0.459,3.651,1.379c0.94,0.918,1.416,2.211,1.416,3.875
		c0,0.104-0.004,0.256-0.011,0.455h-8.312c0.069,1.108,0.416,1.957,1.038,2.547c0.623,0.591,1.399,0.886,2.33,0.886
		c0.691,0,1.283-0.165,1.771-0.494C665.22,481.123,665.611,480.597,665.896,479.874z M659.697,477.11h6.221
		c-0.084-0.852-0.321-1.485-0.713-1.91c-0.602-0.658-1.381-0.987-2.34-0.987c-0.867,0-1.599,0.263-2.188,0.788
		S659.761,476.229,659.697,477.11z"/>
</g>
<g>
	<path fill="#231F20" d="M231.779,724.759l-5.412-22.92l4.734,0.012l3.414,15.743l4.227-15.725l5.5,0.014l3.977,16.01l3.555-15.988
		l4.656,0.012l-5.619,22.893l-4.906-0.013l-4.521-17.136l-4.589,17.114L231.779,724.759z"/>
	<path fill="#231F20" d="M267.745,719.565l4.374,0.742c-0.566,1.604-1.458,2.823-2.674,3.658c-1.216,0.836-2.734,1.251-4.558,1.246
		c-2.886-0.007-5.019-0.954-6.399-2.844c-1.09-1.513-1.632-3.42-1.626-5.726c0.007-2.75,0.73-4.898,2.172-6.453
		c1.441-1.556,3.261-2.327,5.459-2.322c2.469,0.006,4.414,0.826,5.838,2.46c1.423,1.634,2.099,4.133,2.028,7.497l-11-0.027
		c0.028,1.303,0.38,2.316,1.055,3.042c0.675,0.729,1.518,1.09,2.528,1.092c0.688,0.002,1.267-0.185,1.736-0.558
		C267.148,721.002,267.504,720.399,267.745,719.565z M268.007,715.129c-0.028-1.271-0.354-2.237-0.978-2.9
		c-0.623-0.66-1.384-0.993-2.279-0.995c-0.958-0.005-1.751,0.345-2.377,1.041c-0.627,0.693-0.937,1.644-0.929,2.841L268.007,715.129
		z"/>
	<path fill="#231F20" d="M275.732,724.866l0.057-22.906l4.391,0.011l-0.021,8.25c1.357-1.537,2.964-2.305,4.818-2.301
		c2.021,0.006,3.69,0.742,5.01,2.208c1.319,1.467,1.976,3.57,1.969,6.31c-0.007,2.834-0.687,5.017-2.039,6.545
		c-1.352,1.525-2.993,2.287-4.92,2.282c-0.948-0.003-1.882-0.239-2.803-0.718c-0.921-0.477-1.714-1.179-2.378-2.105l-0.006,2.438
		L275.732,724.866z M280.113,716.221c-0.004,1.722,0.263,2.991,0.803,3.814c0.758,1.169,1.767,1.755,3.027,1.758
		c0.969,0.002,1.795-0.41,2.479-1.236c0.684-0.824,1.028-2.13,1.033-3.908c0.005-1.896-0.336-3.267-1.021-4.104
		c-0.686-0.84-1.564-1.262-2.638-1.264c-1.052-0.003-1.928,0.401-2.628,1.22C280.469,713.312,280.117,714.555,280.113,716.221z"/>
	<path fill="#231F20" d="M304.43,702.03l8.453,0.021c1.906,0.004,3.358,0.154,4.358,0.448c1.343,0.399,2.491,1.104,3.446,2.117
		c0.954,1.014,1.684,2.252,2.18,3.717s0.742,3.271,0.733,5.416c-0.004,1.886-0.239,3.51-0.715,4.873
		c-0.577,1.665-1.396,3.012-2.463,4.041c-0.804,0.779-1.89,1.386-3.255,1.819c-1.021,0.318-2.387,0.479-4.095,0.475l-8.703-0.021
		L304.43,702.03z M309.045,705.917l-0.037,15.172l3.453,0.009c1.291,0.003,2.224-0.064,2.797-0.212
		c0.751-0.186,1.374-0.502,1.87-0.948c0.495-0.443,0.901-1.183,1.216-2.209c0.315-1.021,0.478-2.422,0.479-4.19
		c0.004-1.771-0.148-3.131-0.459-4.08c-0.312-0.947-0.746-1.689-1.31-2.222c-0.562-0.533-1.271-0.896-2.139-1.083
		c-0.646-0.147-1.911-0.227-3.796-0.229L309.045,705.917z"/>
	<path fill="#231F20" d="M337.089,719.735l4.374,0.745c-0.566,1.604-1.458,2.82-2.674,3.655c-1.216,0.836-2.734,1.251-4.559,1.246
		c-2.888-0.007-5.021-0.954-6.398-2.844c-1.09-1.512-1.632-3.42-1.626-5.724c0.007-2.75,0.729-4.9,2.172-6.454
		c1.442-1.557,3.261-2.328,5.459-2.323c2.469,0.006,4.414,0.826,5.838,2.46c1.423,1.635,2.102,4.133,2.028,7.497l-11-0.027
		c0.028,1.307,0.38,2.316,1.055,3.042c0.675,0.729,1.521,1.09,2.528,1.092c0.688,0.003,1.267-0.184,1.736-0.558
		C336.491,721.171,336.848,720.569,337.089,719.735z M337.351,715.299c-0.025-1.271-0.354-2.236-0.978-2.897
		c-0.624-0.663-1.384-0.996-2.279-0.998c-0.958-0.002-1.751,0.346-2.377,1.041c-0.627,0.693-0.937,1.645-0.929,2.842
		L337.351,715.299z"/>
	<path fill="#231F20" d="M343.729,720.299l4.408-0.661c0.188,0.855,0.563,1.505,1.139,1.948c0.568,0.445,1.372,0.668,2.401,0.67
		c1.136,0.003,1.99-0.203,2.564-0.618c0.386-0.29,0.579-0.681,0.581-1.171c0.001-0.333-0.104-0.606-0.312-0.829
		c-0.219-0.208-0.708-0.399-1.468-0.581c-3.54-0.79-5.783-1.509-6.729-2.154c-1.312-0.899-1.965-2.146-1.961-3.739
		c0.007-1.438,0.574-2.646,1.715-3.621c1.138-0.976,2.896-1.462,5.282-1.456c2.271,0.006,3.957,0.38,5.062,1.122
		c1.103,0.743,1.856,1.839,2.271,3.287l-4.143,0.755c-0.176-0.646-0.511-1.142-1.004-1.486c-0.495-0.345-1.2-0.519-2.116-0.521
		c-1.156-0.002-1.985,0.157-2.485,0.479c-0.334,0.229-0.502,0.525-0.503,0.893c0,0.312,0.146,0.578,0.438,0.798
		c0.396,0.293,1.762,0.707,4.099,1.244s3.972,1.189,4.896,1.966c0.915,0.783,1.371,1.873,1.367,3.269
		c-0.007,1.521-0.646,2.827-1.916,3.917c-1.273,1.092-3.155,1.635-5.646,1.627c-2.261-0.006-4.049-0.468-5.363-1.388
		C344.989,723.12,344.131,721.873,343.729,720.299z"/>
	<path fill="#231F20" d="M363.061,725.081l0.041-16.594l4.394,0.011l-0.041,16.594L363.061,725.081z M363.107,706.237l0.01-4.062
		l4.391,0.011l-0.01,4.062L363.107,706.237z"/>
	<path fill="#231F20" d="M371.542,726.195l5.015,0.622c0.081,0.583,0.273,0.981,0.575,1.204c0.416,0.312,1.071,0.472,1.968,0.474
		c1.146,0.003,2.008-0.167,2.579-0.509c0.389-0.229,0.681-0.602,0.878-1.107c0.139-0.365,0.205-1.037,0.208-2.016l0.009-2.422
		c-1.317,1.789-2.979,2.681-4.979,2.676c-2.229-0.006-3.992-0.952-5.29-2.842c-1.017-1.491-1.521-3.35-1.518-5.565
		c0.007-2.781,0.682-4.905,2.021-6.37c1.342-1.466,3.008-2.193,4.998-2.188c2.052,0.005,3.742,0.911,5.071,2.716l0.006-2.328
		l4.109,0.01l-0.037,14.894c-0.004,1.958-0.17,3.422-0.495,4.39s-0.78,1.727-1.364,2.278c-0.585,0.55-1.365,0.979-2.34,1.291
		c-0.975,0.31-2.207,0.463-3.696,0.46c-2.812-0.008-4.807-0.495-5.979-1.461c-1.175-0.967-1.762-2.189-1.757-3.668
		C371.525,726.58,371.531,726.403,371.542,726.195z M375.488,716.471c-0.005,1.764,0.333,3.054,1.014,3.87
		c0.681,0.819,1.521,1.229,2.521,1.232c1.07,0.003,1.979-0.414,2.722-1.251c0.741-0.836,1.114-2.078,1.119-3.728
		c0.004-1.719-0.351-2.991-1.057-3.83c-0.706-0.835-1.602-1.254-2.685-1.257c-1.052-0.003-1.92,0.404-2.604,1.223
		C375.837,713.548,375.492,714.794,375.488,716.471z"/>
	<path fill="#231F20" d="M406.592,725.188l-4.391-0.011l0.021-8.469c0.005-1.791-0.086-2.95-0.271-3.478
		c-0.188-0.525-0.489-0.938-0.911-1.229c-0.421-0.292-0.929-0.439-1.522-0.441c-0.761-0.002-1.44,0.206-2.048,0.62
		c-0.604,0.416-1.021,0.967-1.246,1.653c-0.227,0.687-0.341,1.958-0.346,3.812l-0.019,7.519l-4.394-0.011l0.041-16.597l4.078,0.013
		l-0.006,2.438c1.452-1.871,3.276-2.804,5.476-2.799c0.972,0.003,1.854,0.18,2.654,0.53c0.802,0.352,1.407,0.798,1.817,1.34
		c0.407,0.543,0.692,1.158,0.854,1.847c0.161,0.689,0.238,1.672,0.235,2.953L406.592,725.188z"/>
	<path fill="#231F20" d="M410.992,702.354l4.391,0.014l-0.008,3.141c-0.004,1.271-0.115,2.273-0.336,3.007
		c-0.221,0.734-0.636,1.396-1.247,1.977c-0.61,0.583-1.385,1.039-2.323,1.369l-0.854-1.814c0.886-0.289,1.518-0.688,1.894-1.198
		c0.377-0.509,0.576-1.207,0.603-2.093l-2.125-0.005L410.992,702.354z"/>
	<path fill="#231F20" d="M417.213,720.479l4.408-0.658c0.186,0.854,0.562,1.504,1.136,1.945c0.571,0.444,1.373,0.667,2.404,0.67
		c1.136,0.006,1.99-0.2,2.562-0.616c0.389-0.29,0.579-0.683,0.581-1.171c0.001-0.332-0.104-0.609-0.311-0.828
		c-0.219-0.209-0.708-0.402-1.468-0.582c-3.54-0.79-5.783-1.508-6.729-2.157c-1.311-0.898-1.964-2.146-1.96-3.739
		c0.004-1.438,0.574-2.644,1.712-3.62c1.138-0.976,2.899-1.462,5.285-1.456c2.271,0.008,3.957,0.383,5.06,1.122
		c1.104,0.742,1.859,1.838,2.273,3.286l-4.143,0.756c-0.179-0.646-0.514-1.142-1.006-1.484c-0.493-0.348-1.198-0.521-2.114-0.521
		c-1.156-0.003-1.985,0.157-2.485,0.479c-0.334,0.229-0.502,0.522-0.503,0.89c0,0.312,0.146,0.578,0.438,0.798
		c0.396,0.293,1.762,0.707,4.099,1.244s3.969,1.192,4.894,1.965c0.915,0.784,1.371,1.874,1.367,3.271
		c-0.004,1.521-0.643,2.826-1.916,3.917c-1.271,1.091-3.155,1.633-5.645,1.627c-2.264-0.006-4.049-0.468-5.363-1.392
		C418.474,723.301,417.615,722.054,417.213,720.479z"/>
</g>
<g>
	<path fill="#231F20" d="M562.867,256.038v-1.272c-0.712,1-1.759,1.5-3.142,1.5c-0.896,0-1.718-0.222-2.469-0.665
		c-0.75-0.443-1.332-1.062-1.744-1.856s-0.616-1.708-0.616-2.74c0-1.007,0.187-1.92,0.56-2.74c0.374-0.82,0.935-1.448,1.682-1.885
		s1.582-0.655,2.505-0.655c0.679,0,1.279,0.128,1.81,0.385c0.529,0.256,0.959,0.59,1.29,1.002v-4.996h1.893v13.923L562.867,256.038
		L562.867,256.038z M556.852,251.005c0,1.292,0.306,2.257,0.909,2.896c0.606,0.64,1.322,0.959,2.146,0.959
		c0.831,0,1.538-0.305,2.119-0.917c0.582-0.611,0.872-1.543,0.872-2.797c0-1.38-0.298-2.393-0.89-3.039s-1.319-0.969-2.188-0.969
		c-0.848,0-1.554,0.311-2.119,0.931C557.136,248.69,556.852,249.669,556.852,251.005z"/>
	<path fill="#231F20" d="M575.31,252.79l1.969,0.218c-0.312,1.032-0.887,1.833-1.726,2.403c-0.839,0.57-1.91,0.855-3.214,0.855
		c-1.642,0-2.941-0.454-3.905-1.363c-0.963-0.909-1.441-2.183-1.441-3.823c0-1.697,0.484-3.014,1.459-3.951
		c0.973-0.937,2.231-1.406,3.784-1.406c1.501,0,2.728,0.459,3.679,1.377c0.952,0.918,1.428,2.209,1.428,3.875
		c0,0.102-0.004,0.253-0.011,0.456h-8.373c0.07,1.108,0.42,1.956,1.047,2.545c0.627,0.589,1.409,0.883,2.347,0.883
		c0.698,0,1.293-0.165,1.787-0.494C574.63,254.038,575.021,253.512,575.31,252.79z M569.062,250.026h6.269
		c-0.085-0.848-0.324-1.484-0.719-1.909c-0.606-0.659-1.395-0.988-2.357-0.988c-0.874,0-1.606,0.263-2.204,0.788
		C569.455,248.444,569.126,249.146,569.062,250.026z"/>
	<path fill="#231F20" d="M578.904,253.027l1.882-0.266c0.104,0.677,0.397,1.196,0.883,1.558c0.482,0.361,1.157,0.541,2.024,0.541
		c0.874,0,1.521-0.16,1.943-0.479c0.423-0.319,0.634-0.695,0.634-1.125c0-0.386-0.187-0.69-0.561-0.912
		c-0.261-0.152-0.909-0.345-1.944-0.579c-1.396-0.317-2.361-0.59-2.9-0.822c-0.539-0.231-0.948-0.551-1.229-0.959
		c-0.276-0.409-0.417-0.86-0.417-1.354c0-0.45,0.114-0.866,0.345-1.249c0.229-0.383,0.54-0.701,0.937-0.954
		c0.296-0.196,0.699-0.363,1.21-0.499c0.511-0.136,1.06-0.204,1.645-0.204c0.882,0,1.654,0.114,2.32,0.342
		c0.665,0.228,1.157,0.536,1.477,0.926c0.314,0.389,0.533,0.91,0.653,1.562l-1.858,0.229c-0.085-0.519-0.33-0.924-0.735-1.215
		c-0.405-0.292-0.978-0.437-1.718-0.437c-0.874,0-1.498,0.13-1.871,0.389c-0.374,0.26-0.561,0.564-0.561,0.912
		c0,0.222,0.076,0.421,0.23,0.598c0.155,0.184,0.398,0.335,0.729,0.456c0.188,0.063,0.751,0.209,1.682,0.437
		c1.346,0.323,2.285,0.587,2.817,0.793c0.529,0.206,0.947,0.505,1.252,0.897c0.304,0.393,0.455,0.88,0.455,1.463
		c0,0.57-0.188,1.106-0.558,1.609c-0.369,0.503-0.901,0.893-1.602,1.168c-0.697,0.275-1.486,0.413-2.367,0.413
		c-1.459,0-2.571-0.272-3.336-0.817C579.604,254.903,579.115,254.098,578.904,253.027z"/>
	<path fill="#231F20" d="M590.501,244.081v-1.966h1.903v1.966H590.501z M590.501,256.038v-10.086h1.903v10.086H590.501z"/>
	<path fill="#231F20" d="M594.951,256.874l1.851,0.247c0.077,0.513,0.292,0.887,0.646,1.121c0.472,0.317,1.117,0.475,1.935,0.475
		c0.881,0,1.562-0.158,2.04-0.475c0.479-0.316,0.804-0.76,0.974-1.33c0.1-0.348,0.146-1.079,0.139-2.194
		c-0.832,0.88-1.868,1.32-3.108,1.32c-1.543,0-2.736-0.5-3.584-1.5c-0.846-1-1.269-2.2-1.269-3.6c0-0.962,0.192-1.85,0.582-2.664
		c0.388-0.814,0.949-1.442,1.686-1.885c0.737-0.443,1.604-0.665,2.596-0.665c1.325,0,2.419,0.481,3.277,1.444v-1.216h1.755v8.718
		c0,1.57-0.179,2.683-0.534,3.338c-0.354,0.655-0.92,1.173-1.689,1.553c-0.771,0.38-1.722,0.57-2.85,0.57
		c-1.341,0-2.422-0.271-3.245-0.812C595.321,258.778,594.923,257.963,594.951,256.874z M596.526,250.814
		c0,1.324,0.293,2.289,0.878,2.897s1.315,0.912,2.196,0.912c0.874,0,1.607-0.302,2.199-0.907c0.592-0.604,0.89-1.553,0.89-2.844
		c0-1.234-0.307-2.165-0.914-2.792c-0.609-0.627-1.347-0.94-2.204-0.94c-0.848,0-1.564,0.309-2.157,0.926
		C596.822,248.683,596.526,249.599,596.526,250.814z"/>
	<path fill="#231F20" d="M607.341,256.038v-10.086h1.713v1.434c0.824-1.108,2.018-1.662,3.573-1.662
		c0.677,0,1.299,0.109,1.866,0.328c0.564,0.219,0.991,0.505,1.271,0.86c0.282,0.355,0.479,0.775,0.594,1.263
		c0.068,0.317,0.104,0.871,0.104,1.662v6.202h-1.903v-6.135c0-0.696-0.072-1.217-0.222-1.562c-0.146-0.345-0.411-0.621-0.788-0.826
		c-0.377-0.206-0.817-0.309-1.326-0.309c-0.811,0-1.511,0.231-2.099,0.693c-0.589,0.462-0.883,1.339-0.883,2.631v5.508
		L607.341,256.038L607.341,256.038z"/>
	<path fill="#231F20" d="M625.852,256.038v-8.756h-1.681v-1.33h1.681v-1.073c0-0.677,0.066-1.181,0.201-1.51
		c0.185-0.443,0.505-0.803,0.967-1.078c0.464-0.275,1.108-0.413,1.939-0.413c0.536,0,1.128,0.057,1.776,0.171l-0.285,1.491
		c-0.396-0.063-0.771-0.095-1.121-0.095c-0.577,0-0.986,0.111-1.226,0.333c-0.24,0.222-0.359,0.636-0.359,1.244v0.931h2.188v1.33
		h-2.188v8.756L625.852,256.038L625.852,256.038z"/>
	<path fill="#231F20" d="M631.37,256.038v-13.923h1.903v13.923H631.37z"/>
	<path fill="#231F20" d="M643.548,254.794c-0.704,0.538-1.383,0.918-2.035,1.14c-0.649,0.222-1.352,0.333-2.098,0.333
		c-1.233,0-2.182-0.271-2.844-0.812c-0.663-0.542-0.994-1.233-0.994-2.075c0-0.494,0.125-0.945,0.375-1.354
		c0.25-0.408,0.578-0.736,0.981-0.983c0.405-0.247,0.861-0.434,1.369-0.56c0.373-0.089,0.938-0.174,1.691-0.256
		c1.536-0.165,2.667-0.361,3.394-0.589c0.007-0.234,0.013-0.383,0.013-0.446c0-0.697-0.182-1.188-0.539-1.472
		c-0.486-0.386-1.209-0.58-2.168-0.58c-0.896,0-1.558,0.141-1.981,0.423c-0.427,0.282-0.742,0.78-0.946,1.496l-1.858-0.228
		c0.169-0.715,0.445-1.293,0.835-1.733c0.388-0.44,0.945-0.779,1.681-1.016c0.733-0.238,1.582-0.356,2.548-0.356
		c0.958,0,1.737,0.102,2.336,0.304c0.602,0.203,1.04,0.458,1.321,0.764c0.282,0.308,0.479,0.695,0.593,1.164
		c0.063,0.292,0.096,0.817,0.096,1.577v2.279c0,1.589,0.039,2.594,0.121,3.015c0.08,0.421,0.241,0.825,0.48,1.211h-1.987
		C643.731,255.684,643.604,255.269,643.548,254.794z M643.39,250.976c-0.688,0.253-1.727,0.469-3.106,0.646
		c-0.782,0.101-1.335,0.215-1.659,0.342s-0.575,0.312-0.751,0.556s-0.265,0.514-0.265,0.812c0,0.456,0.19,0.835,0.574,1.14
		c0.387,0.304,0.946,0.456,1.688,0.456c0.732,0,1.385-0.144,1.956-0.432c0.57-0.288,0.99-0.682,1.258-1.182
		c0.204-0.386,0.307-0.956,0.307-1.709L643.39,250.976L643.39,250.976z"/>
	<path fill="#231F20" d="M648.273,244.081v-1.966h1.901v1.966H648.273z M648.273,256.038v-10.086h1.901v10.086H648.273z"/>
	<path fill="#231F20" d="M653.053,256.038v-10.086h1.712v1.529c0.438-0.716,0.841-1.188,1.211-1.415
		c0.37-0.228,0.777-0.342,1.223-0.342c0.642,0,1.293,0.184,1.956,0.551l-0.655,1.586c-0.466-0.247-0.933-0.371-1.396-0.371
		c-0.416,0-0.79,0.112-1.12,0.337c-0.33,0.225-0.566,0.537-0.707,0.936c-0.213,0.608-0.317,1.273-0.317,1.995v5.28H653.053
		L653.053,256.038z"/>
	<path fill="#231F20" d="M659.585,256.038v-1.947h2.167v1.947c0,0.715-0.141,1.293-0.423,1.733c-0.281,0.44-0.729,0.78-1.342,1.021
		l-0.529-0.731c0.402-0.158,0.698-0.391,0.889-0.698c0.189-0.307,0.296-0.749,0.316-1.325H659.585z"/>
	<path fill="#231F20" d="M567.725,278.134c-0.703,0.538-1.383,0.918-2.033,1.14c-0.651,0.222-1.354,0.333-2.1,0.333
		c-1.231,0-2.182-0.271-2.844-0.812c-0.663-0.542-0.994-1.233-0.994-2.075c0-0.494,0.125-0.945,0.375-1.354
		c0.25-0.408,0.578-0.736,0.983-0.983c0.403-0.247,0.859-0.434,1.367-0.56c0.373-0.089,0.938-0.174,1.691-0.256
		c1.536-0.165,2.667-0.361,3.396-0.589c0.007-0.234,0.011-0.383,0.011-0.446c0-0.697-0.182-1.188-0.539-1.472
		c-0.486-0.386-1.209-0.58-2.168-0.58c-0.896,0-1.558,0.141-1.981,0.423c-0.427,0.282-0.742,0.78-0.945,1.496l-1.859-0.228
		c0.169-0.715,0.447-1.293,0.835-1.733s0.947-0.779,1.681-1.016c0.733-0.238,1.582-0.356,2.548-0.356
		c0.958,0,1.737,0.102,2.337,0.304c0.601,0.203,1.039,0.458,1.32,0.764c0.282,0.308,0.479,0.695,0.593,1.164
		c0.063,0.292,0.097,0.817,0.097,1.577v2.279c0,1.589,0.04,2.594,0.122,3.015c0.08,0.421,0.239,0.825,0.479,1.211h-1.987
		C567.908,279.023,567.781,278.609,567.725,278.134z M567.566,274.316c-0.69,0.253-1.729,0.469-3.108,0.646
		c-0.782,0.101-1.335,0.215-1.659,0.342c-0.324,0.127-0.575,0.312-0.751,0.556c-0.176,0.244-0.265,0.514-0.265,0.812
		c0,0.456,0.19,0.835,0.576,1.14c0.385,0.304,0.944,0.456,1.687,0.456c0.733,0,1.385-0.144,1.956-0.432
		c0.57-0.288,0.99-0.682,1.258-1.182c0.204-0.386,0.309-0.956,0.309-1.709L567.566,274.316L567.566,274.316z"/>
	<path fill="#231F20" d="M572.439,279.378v-10.086h1.713v1.434c0.822-1.108,2.016-1.662,3.571-1.662
		c0.679,0,1.301,0.109,1.866,0.328c0.566,0.219,0.991,0.505,1.273,0.86s0.479,0.775,0.592,1.263c0.07,0.317,0.106,0.871,0.106,1.662
		v6.202h-1.903v-6.135c0-0.696-0.074-1.217-0.222-1.562c-0.148-0.345-0.411-0.621-0.788-0.826c-0.377-0.206-0.819-0.309-1.326-0.309
		c-0.812,0-1.511,0.231-2.101,0.693c-0.589,0.462-0.883,1.339-0.883,2.631v5.508L572.439,279.378L572.439,279.378z"/>
	<path fill="#231F20" d="M584.491,267.421v-1.966h1.903v1.966H584.491z M584.491,279.378v-10.086h1.903v10.086H584.491z"/>
	<path fill="#231F20" d="M589.29,279.378v-10.086h1.702v1.415c0.353-0.494,0.82-0.891,1.406-1.192
		c0.585-0.301,1.251-0.451,1.998-0.451c0.829,0,1.514,0.155,2.046,0.465c0.529,0.311,0.905,0.744,1.126,1.301
		c0.888-1.178,2.043-1.767,3.467-1.767c1.113,0,1.97,0.277,2.567,0.831c0.601,0.554,0.898,1.407,0.898,2.56v6.923h-1.893v-6.354
		c0-0.684-0.062-1.176-0.187-1.477c-0.124-0.3-0.348-0.542-0.672-0.726s-0.704-0.275-1.142-0.275c-0.789,0-1.444,0.236-1.968,0.708
		c-0.521,0.472-0.78,1.227-0.78,2.265v5.86h-1.903v-6.553c0-0.76-0.155-1.33-0.465-1.709c-0.312-0.38-0.817-0.569-1.522-0.569
		c-0.536,0-1.03,0.126-1.483,0.38c-0.454,0.253-0.784,0.624-0.988,1.111c-0.205,0.488-0.307,1.19-0.307,2.108v5.233L589.29,279.378
		L589.29,279.378z"/>
	<path fill="#231F20" d="M614.651,278.134c-0.704,0.538-1.385,0.918-2.035,1.14c-0.651,0.222-1.354,0.333-2.1,0.333
		c-1.231,0-2.182-0.271-2.844-0.812c-0.663-0.542-0.994-1.233-0.994-2.075c0-0.494,0.125-0.945,0.375-1.354
		c0.25-0.408,0.578-0.736,0.983-0.983s0.861-0.434,1.369-0.56c0.373-0.089,0.938-0.174,1.689-0.256
		c1.536-0.165,2.667-0.361,3.396-0.589c0.007-0.234,0.011-0.383,0.011-0.446c0-0.697-0.18-1.188-0.539-1.472
		c-0.486-0.386-1.209-0.58-2.168-0.58c-0.896,0-1.556,0.141-1.98,0.423c-0.428,0.282-0.741,0.78-0.945,1.496l-1.86-0.228
		c0.169-0.715,0.447-1.293,0.835-1.733c0.39-0.44,0.947-0.779,1.683-1.016c0.731-0.238,1.582-0.356,2.548-0.356
		c0.958,0,1.735,0.102,2.336,0.304c0.6,0.203,1.04,0.458,1.32,0.764c0.281,0.308,0.479,0.695,0.594,1.164
		c0.062,0.292,0.095,0.817,0.095,1.577v2.279c0,1.589,0.04,2.594,0.122,3.015c0.08,0.421,0.241,0.825,0.479,1.211h-1.985
		C614.835,279.023,614.708,278.609,614.651,278.134z M614.493,274.316c-0.69,0.253-1.729,0.469-3.108,0.646
		c-0.781,0.101-1.335,0.215-1.659,0.342c-0.322,0.127-0.573,0.312-0.751,0.556c-0.176,0.244-0.265,0.514-0.265,0.812
		c0,0.456,0.192,0.835,0.576,1.14c0.385,0.304,0.946,0.456,1.687,0.456c0.733,0,1.387-0.144,1.956-0.432
		c0.57-0.288,0.99-0.682,1.259-1.182c0.203-0.386,0.308-0.956,0.308-1.709L614.493,274.316L614.493,274.316z"/>
	<path fill="#231F20" d="M623.521,277.849l0.272,1.51c-0.535,0.101-1.015,0.152-1.438,0.152c-0.69,0-1.229-0.098-1.607-0.294
		c-0.38-0.196-0.648-0.454-0.803-0.774c-0.155-0.319-0.232-0.992-0.232-2.018v-5.803h-1.396v-1.33h1.396v-2.498l1.894-1.026v3.523
		h1.914v1.33h-1.914v5.898c0,0.487,0.032,0.801,0.101,0.94c0.067,0.139,0.176,0.25,0.328,0.333c0.151,0.083,0.368,0.124,0.65,0.124
		C622.896,277.916,623.176,277.893,623.521,277.849z"/>
	<path fill="#231F20" d="M625.392,267.421v-1.966h1.903v1.966H625.392z M625.392,279.378v-10.086h1.903v10.086H625.392z"/>
	<path fill="#231F20" d="M629.483,274.335c0-1.868,0.576-3.251,1.731-4.15c0.966-0.747,2.145-1.121,3.531-1.121
		c1.544,0,2.805,0.455,3.784,1.363c0.979,0.909,1.47,2.164,1.47,3.766c0,1.298-0.217,2.319-0.65,3.063
		c-0.433,0.744-1.062,1.322-1.892,1.733c-0.828,0.411-1.732,0.617-2.712,0.617c-1.571,0-2.842-0.453-3.812-1.358
		C629.968,277.342,629.483,276.038,629.483,274.335z M631.439,274.335c0,1.292,0.312,2.259,0.938,2.901s1.417,0.964,2.368,0.964
		c0.944,0,1.729-0.323,2.355-0.969c0.629-0.646,0.941-1.63,0.941-2.954c0-1.247-0.316-2.192-0.946-2.834
		c-0.631-0.643-1.415-0.964-2.353-0.964c-0.951,0-1.741,0.32-2.368,0.959S631.439,273.043,631.439,274.335z"/>
	<path fill="#231F20" d="M642.232,279.378v-10.086h1.713v1.434c0.822-1.108,2.016-1.662,3.571-1.662
		c0.679,0,1.301,0.109,1.866,0.328c0.566,0.219,0.991,0.505,1.273,0.86s0.479,0.775,0.592,1.263c0.07,0.317,0.106,0.871,0.106,1.662
		v6.202h-1.903v-6.135c0-0.696-0.074-1.217-0.222-1.562c-0.148-0.345-0.411-0.621-0.788-0.826c-0.377-0.206-0.819-0.309-1.326-0.309
		c-0.812,0-1.511,0.231-2.101,0.693c-0.589,0.462-0.883,1.339-0.883,2.631v5.508L642.232,279.378L642.232,279.378z"/>
	<path fill="#231F20" d="M654.77,279.378v-1.947h2.169v1.947c0,0.715-0.143,1.293-0.425,1.733c-0.279,0.44-0.729,0.78-1.342,1.021
		l-0.529-0.731c0.402-0.158,0.698-0.391,0.891-0.698c0.188-0.307,0.296-0.749,0.314-1.325H654.77z"/>
	<path fill="#231F20" d="M526.718,290.761v-1.966h1.903v1.966H526.718z M526.718,302.718v-10.086h1.903v10.086H526.718z"/>
	<path fill="#231F20" d="M531.517,302.718v-10.086h1.715v1.434c0.822-1.108,2.016-1.662,3.571-1.662
		c0.679,0,1.299,0.109,1.866,0.328c0.566,0.219,0.991,0.505,1.273,0.86c0.28,0.355,0.479,0.775,0.592,1.263
		c0.07,0.317,0.104,0.871,0.104,1.662v6.202h-1.901v-6.135c0-0.696-0.074-1.217-0.224-1.562c-0.146-0.345-0.409-0.621-0.788-0.826
		c-0.377-0.206-0.817-0.309-1.324-0.309c-0.812,0-1.513,0.231-2.101,0.693c-0.589,0.462-0.883,1.339-0.883,2.631v5.508
		L531.517,302.718L531.517,302.718z"/>
	<path fill="#231F20" d="M547.713,301.189l0.274,1.51c-0.535,0.101-1.017,0.152-1.438,0.152c-0.688,0-1.227-0.098-1.605-0.294
		c-0.381-0.196-0.648-0.454-0.805-0.774c-0.153-0.319-0.23-0.992-0.23-2.018v-5.803h-1.396v-1.33h1.396v-2.498l1.892-1.026v3.523
		h1.914v1.33H545.8v5.898c0,0.487,0.034,0.801,0.103,0.94c0.065,0.139,0.176,0.25,0.328,0.333c0.149,0.083,0.366,0.124,0.648,0.124
		C547.089,301.256,547.367,301.233,547.713,301.189z"/>
	<path fill="#231F20" d="M557.259,299.47l1.967,0.218c-0.311,1.032-0.885,1.833-1.724,2.403c-0.839,0.57-1.91,0.855-3.214,0.855
		c-1.644,0-2.943-0.454-3.905-1.363c-0.963-0.909-1.443-2.183-1.443-3.823c0-1.697,0.486-3.014,1.459-3.951
		c0.975-0.937,2.233-1.406,3.784-1.406c1.501,0,2.729,0.459,3.681,1.377c0.951,0.918,1.428,2.209,1.428,3.875
		c0,0.102-0.004,0.253-0.011,0.456h-8.373c0.068,1.108,0.42,1.956,1.047,2.545c0.627,0.589,1.409,0.883,2.347,0.883
		c0.698,0,1.293-0.165,1.787-0.494C556.579,300.718,556.97,300.192,557.259,299.47z M551.012,296.707h6.271
		c-0.085-0.848-0.324-1.484-0.719-1.909c-0.606-0.659-1.395-0.988-2.357-0.988c-0.874,0-1.608,0.263-2.204,0.788
		C551.404,295.124,551.075,295.827,551.012,296.707z"/>
	<path fill="#231F20" d="M561.594,302.718v-10.086h1.712v1.529c0.438-0.716,0.841-1.188,1.211-1.415
		c0.37-0.228,0.777-0.342,1.223-0.342c0.642,0,1.293,0.184,1.956,0.551l-0.655,1.586c-0.466-0.247-0.933-0.371-1.396-0.371
		c-0.416,0-0.79,0.112-1.12,0.337s-0.566,0.537-0.707,0.936c-0.213,0.608-0.317,1.273-0.317,1.995v5.28H561.594L561.594,302.718z"/>
	<path fill="#231F20" d="M576.149,301.474c-0.704,0.538-1.385,0.918-2.035,1.14c-0.651,0.222-1.354,0.333-2.1,0.333
		c-1.231,0-2.182-0.271-2.844-0.812c-0.663-0.542-0.994-1.233-0.994-2.075c0-0.494,0.125-0.945,0.375-1.354
		c0.25-0.408,0.578-0.736,0.983-0.983c0.404-0.247,0.859-0.434,1.369-0.56c0.373-0.089,0.938-0.174,1.689-0.256
		c1.536-0.165,2.667-0.361,3.396-0.589c0.007-0.234,0.011-0.383,0.011-0.446c0-0.697-0.18-1.188-0.539-1.472
		c-0.486-0.386-1.209-0.58-2.168-0.58c-0.896,0-1.556,0.141-1.981,0.423c-0.427,0.282-0.74,0.78-0.944,1.496l-1.86-0.228
		c0.169-0.715,0.447-1.293,0.835-1.733c0.389-0.44,0.947-0.779,1.683-1.016c0.731-0.238,1.581-0.356,2.548-0.356
		c0.958,0,1.735,0.102,2.336,0.304c0.6,0.203,1.04,0.458,1.319,0.764c0.282,0.308,0.479,0.695,0.595,1.164
		c0.062,0.292,0.095,0.817,0.095,1.577v2.279c0,1.589,0.04,2.594,0.122,3.015c0.08,0.421,0.241,0.825,0.479,1.211h-1.985
		C576.333,302.364,576.206,301.949,576.149,301.474z M575.991,297.656c-0.69,0.253-1.729,0.469-3.108,0.646
		c-0.781,0.101-1.335,0.215-1.659,0.342c-0.322,0.127-0.573,0.312-0.751,0.556c-0.176,0.244-0.265,0.514-0.265,0.812
		c0,0.456,0.192,0.835,0.576,1.14c0.385,0.304,0.946,0.456,1.687,0.456c0.733,0,1.387-0.144,1.956-0.432
		c0.57-0.288,0.99-0.682,1.259-1.182c0.203-0.386,0.308-0.956,0.308-1.709L575.991,297.656L575.991,297.656z"/>
	<path fill="#231F20" d="M588.19,299.024l1.869,0.218c-0.202,1.159-0.728,2.066-1.567,2.721c-0.843,0.655-1.877,0.983-3.104,0.983
		c-1.537,0-2.771-0.451-3.706-1.354c-0.934-0.902-1.398-2.195-1.398-3.879c0-1.089,0.201-2.042,0.603-2.859
		c0.401-0.816,1.015-1.429,1.834-1.837c0.821-0.409,1.716-0.613,2.682-0.613c1.22,0,2.217,0.277,2.991,0.831
		c0.774,0.554,1.271,1.341,1.489,2.36l-1.85,0.257c-0.177-0.678-0.488-1.188-0.938-1.529c-0.446-0.342-0.986-0.513-1.623-0.513
		c-0.958,0-1.735,0.309-2.336,0.926c-0.6,0.618-0.896,1.594-0.896,2.93c0,1.355,0.289,2.339,0.866,2.954
		c0.577,0.614,1.332,0.921,2.263,0.921c0.747,0,1.37-0.206,1.871-0.617C587.739,300.512,588.057,299.878,588.19,299.024z"/>
	<path fill="#231F20" d="M595.845,301.189l0.274,1.51c-0.535,0.101-1.017,0.152-1.438,0.152c-0.688,0-1.227-0.098-1.605-0.294
		c-0.38-0.196-0.648-0.454-0.804-0.774c-0.154-0.319-0.231-0.992-0.231-2.018v-5.803h-1.396v-1.33h1.396v-2.498l1.892-1.026v3.523
		h1.914v1.33h-1.914v5.898c0,0.487,0.034,0.801,0.103,0.94c0.065,0.139,0.176,0.25,0.328,0.333c0.149,0.083,0.368,0.124,0.648,0.124
		C595.221,301.256,595.499,301.233,595.845,301.189z"/>
	<path fill="#231F20" d="M597.716,290.761v-1.966h1.903v1.966H597.716z M597.716,302.718v-10.086h1.903v10.086H597.716z"/>
	<path fill="#231F20" d="M601.807,297.675c0-1.868,0.578-3.251,1.733-4.15c0.966-0.747,2.143-1.121,3.531-1.121
		c1.544,0,2.805,0.455,3.784,1.363c0.979,0.909,1.47,2.164,1.47,3.766c0,1.298-0.217,2.319-0.65,3.063
		c-0.433,0.744-1.062,1.322-1.892,1.733c-0.828,0.411-1.732,0.617-2.712,0.617c-1.571,0-2.844-0.453-3.812-1.358
		C602.291,300.683,601.807,299.378,601.807,297.675z M603.763,297.675c0,1.292,0.313,2.259,0.94,2.901
		c0.627,0.642,1.417,0.964,2.368,0.964c0.942,0,1.729-0.323,2.355-0.969s0.941-1.63,0.941-2.954c0-1.247-0.316-2.192-0.946-2.834
		c-0.631-0.643-1.415-0.964-2.353-0.964c-0.951,0-1.741,0.32-2.368,0.959C604.075,295.417,603.763,296.384,603.763,297.675z"/>
	<path fill="#231F20" d="M614.556,302.718v-10.086h1.714v1.434c0.823-1.108,2.017-1.662,3.572-1.662
		c0.678,0,1.299,0.109,1.866,0.328c0.566,0.219,0.991,0.505,1.273,0.86c0.28,0.355,0.479,0.775,0.592,1.263
		c0.068,0.317,0.104,0.871,0.104,1.662v6.202h-1.901v-6.135c0-0.696-0.074-1.217-0.224-1.562c-0.146-0.345-0.411-0.621-0.788-0.826
		c-0.377-0.206-0.817-0.309-1.324-0.309c-0.812,0-1.513,0.231-2.101,0.693c-0.589,0.462-0.883,1.339-0.883,2.631v5.508
		L614.556,302.718L614.556,302.718z"/>
	<path fill="#231F20" d="M627.094,302.718v-1.947h2.167v1.947c0,0.715-0.141,1.293-0.423,1.733c-0.281,0.44-0.729,0.78-1.342,1.021
		l-0.529-0.731c0.402-0.158,0.698-0.391,0.891-0.698c0.188-0.307,0.296-0.749,0.314-1.325H627.094z"/>
	<path fill="#231F20" d="M637.866,299.708l1.882-0.266c0.105,0.677,0.399,1.196,0.883,1.558c0.482,0.361,1.157,0.541,2.024,0.541
		c0.874,0,1.521-0.16,1.943-0.479c0.425-0.319,0.636-0.695,0.636-1.125c0-0.386-0.188-0.69-0.562-0.912
		c-0.261-0.152-0.909-0.345-1.943-0.579c-1.396-0.317-2.362-0.59-2.901-0.822c-0.539-0.231-0.948-0.551-1.229-0.959
		c-0.276-0.409-0.416-0.86-0.416-1.354c0-0.45,0.113-0.866,0.345-1.249c0.229-0.383,0.54-0.701,0.936-0.954
		c0.296-0.196,0.699-0.363,1.21-0.499c0.511-0.136,1.061-0.204,1.646-0.204c0.881,0,1.653,0.114,2.319,0.342
		c0.665,0.228,1.157,0.536,1.477,0.926c0.314,0.389,0.535,0.91,0.653,1.562l-1.858,0.228c-0.085-0.519-0.33-0.924-0.735-1.215
		c-0.405-0.292-0.978-0.437-1.718-0.437c-0.874,0-1.498,0.13-1.871,0.389c-0.374,0.26-0.561,0.564-0.561,0.912
		c0,0.222,0.077,0.421,0.23,0.598c0.155,0.184,0.398,0.335,0.729,0.456c0.188,0.063,0.751,0.209,1.682,0.437
		c1.346,0.323,2.285,0.587,2.817,0.793c0.529,0.206,0.947,0.505,1.252,0.897c0.304,0.393,0.455,0.88,0.455,1.463
		c0,0.57-0.188,1.106-0.558,1.609c-0.367,0.503-0.901,0.893-1.602,1.168c-0.697,0.275-1.486,0.413-2.367,0.413
		c-1.459,0-2.571-0.272-3.336-0.817S638.077,300.778,637.866,299.708z"/>
	<path fill="#231F20" d="M648.744,297.675c0-1.868,0.578-3.251,1.731-4.15c0.968-0.747,2.145-1.121,3.531-1.121
		c1.544,0,2.806,0.455,3.784,1.363c0.979,0.909,1.47,2.164,1.47,3.766c0,1.298-0.217,2.319-0.648,3.063
		c-0.435,0.744-1.063,1.322-1.894,1.733c-0.828,0.411-1.73,0.617-2.712,0.617c-1.571,0-2.842-0.453-3.811-1.358
		C649.229,300.683,648.744,299.378,648.744,297.675z M650.7,297.675c0,1.292,0.312,2.259,0.938,2.901
		c0.627,0.642,1.417,0.964,2.368,0.964c0.944,0,1.73-0.323,2.357-0.969s0.939-1.63,0.939-2.954c0-1.247-0.314-2.192-0.944-2.834
		c-0.633-0.643-1.415-0.964-2.354-0.964c-0.951,0-1.741,0.32-2.368,0.959C651.012,295.417,650.7,296.384,650.7,297.675z"/>
	<path fill="#231F20" d="M668.819,299.024l1.87,0.218c-0.203,1.159-0.729,2.066-1.568,2.721c-0.843,0.655-1.877,0.983-3.104,0.983
		c-1.536,0-2.771-0.451-3.706-1.354c-0.934-0.902-1.398-2.195-1.398-3.879c0-1.089,0.201-2.042,0.603-2.859
		c0.401-0.816,1.015-1.429,1.834-1.837c0.821-0.409,1.717-0.613,2.682-0.613c1.22,0,2.217,0.277,2.991,0.831
		c0.774,0.554,1.271,1.341,1.489,2.36l-1.85,0.257c-0.177-0.678-0.488-1.188-0.938-1.529c-0.446-0.342-0.986-0.513-1.622-0.513
		c-0.959,0-1.736,0.309-2.337,0.926c-0.6,0.618-0.896,1.594-0.896,2.93c0,1.355,0.289,2.339,0.866,2.954
		c0.578,0.614,1.332,0.921,2.263,0.921c0.747,0,1.37-0.206,1.871-0.617C668.368,300.512,668.686,299.878,668.819,299.024z"/>
	<path fill="#231F20" d="M672.329,290.761v-1.966h1.903v1.966H672.329z M672.329,302.718v-10.086h1.903v10.086H672.329z"/>
	<path fill="#231F20" d="M684.454,301.474c-0.704,0.538-1.383,0.918-2.035,1.14c-0.651,0.222-1.352,0.333-2.098,0.333
		c-1.233,0-2.184-0.271-2.846-0.812c-0.661-0.542-0.992-1.233-0.992-2.075c0-0.494,0.125-0.945,0.375-1.354
		c0.25-0.408,0.577-0.736,0.981-0.983c0.405-0.247,0.861-0.434,1.369-0.56c0.373-0.089,0.938-0.174,1.691-0.256
		c1.534-0.165,2.667-0.361,3.394-0.589c0.007-0.234,0.011-0.383,0.011-0.446c0-0.697-0.18-1.188-0.539-1.472
		c-0.484-0.386-1.209-0.58-2.168-0.58c-0.895,0-1.556,0.141-1.979,0.423c-0.428,0.282-0.742,0.78-0.946,1.496l-1.859-0.228
		c0.169-0.715,0.446-1.293,0.835-1.733s0.946-0.779,1.682-1.016c0.731-0.238,1.582-0.356,2.548-0.356
		c0.958,0,1.737,0.102,2.336,0.304c0.6,0.203,1.04,0.458,1.321,0.764c0.281,0.308,0.479,0.695,0.593,1.164
		c0.062,0.292,0.095,0.817,0.095,1.577v2.279c0,1.589,0.04,2.594,0.122,3.015c0.08,0.421,0.241,0.825,0.48,1.211h-1.987
		C684.638,302.364,684.511,301.949,684.454,301.474z M684.296,297.656c-0.688,0.253-1.727,0.469-3.106,0.646
		c-0.782,0.101-1.336,0.215-1.659,0.342c-0.324,0.127-0.575,0.312-0.751,0.556c-0.176,0.244-0.267,0.514-0.267,0.812
		c0,0.456,0.192,0.835,0.576,1.14c0.385,0.304,0.946,0.456,1.688,0.456c0.731,0,1.385-0.144,1.956-0.432
		c0.568-0.288,0.988-0.682,1.258-1.182c0.204-0.386,0.307-0.956,0.307-1.709L684.296,297.656L684.296,297.656z"/>
	<path fill="#231F20" d="M689.127,302.718v-13.923h1.903v13.923H689.127z"/>
</g>
</svg>
